<?xml version="1.0" encoding="UTF-8"?>
<svg version="1.1" xmlns="http://www.w3.org/2000/svg" width="690" height="690">
<path d="M0 0 C227.7 0 455.4 0 690 0 C690 227.7 690 455.4 690 690 C462.3 690 234.6 690 0 690 C0 462.3 0 234.6 0 0 Z " fill="#0A0C09" transform="translate(0,0)"/>
<path d="M0 0 C22.77 0 45.54 0 69 0 C69 42.9 69 85.8 69 130 C115.53 130 162.06 130 210 130 C210 87.1 210 44.2 210 0 C232.77 0 255.54 0 279 0 C279 107.25 279 214.5 279 325 C258.42601427 335.28699287 233.00241533 326 210 326 C210 280.79 210 235.58 210 189 C163.47 189 116.94 189 69 189 C69 234.21 69 279.42 69 326 C46.23 326 23.46 326 0 326 C0 218.42 0 110.84 0 0 Z " fill="#41D058" transform="translate(350,191)"/>
<path d="M0 0 C1.03168304 -0.0033284 2.06336609 -0.0066568 3.12631226 -0.01008606 C5.31337033 -0.01514197 7.50043609 -0.0174948 9.6875 -0.01733398 C12.96367964 -0.01949189 16.23950617 -0.03758191 19.515625 -0.05664062 C35.99620557 -0.10241199 52.90479037 -0.06405515 68.8359375 4.66796875 C69.61001953 4.88066406 70.38410156 5.09335938 71.18164062 5.3125 C75.00103403 6.38127446 78.81213439 7.45428249 82.3984375 9.16796875 C82.7284375 9.82796875 83.0584375 10.48796875 83.3984375 11.16796875 C85.06121837 11.8371723 86.75543336 12.42917099 88.4609375 12.98046875 C93.47679279 14.72881518 98.29583099 16.71190481 102.3984375 20.16796875 C102.3984375 20.82796875 102.3984375 21.48796875 102.3984375 22.16796875 C102.95144531 22.41546875 103.50445312 22.66296875 104.07421875 22.91796875 C115.64314211 29.13991073 125.10597135 40.42219192 132.3984375 51.16796875 C133.00945312 52.06128906 133.62046875 52.95460937 134.25 53.875 C138.89357125 61.16521578 140.71918651 67.57336443 141.3984375 76.16796875 C142.0584375 76.16796875 142.7184375 76.16796875 143.3984375 76.16796875 C143.33333333 78.08854167 143.26822917 80.00911458 143.203125 81.9296875 C143.2811706 84.2345539 143.2811706 84.2345539 144.40283203 86.41333008 C145.55729073 89.60748346 145.59783188 92.0955246 145.5234375 95.48046875 C145.50539063 96.54910156 145.48734375 97.61773437 145.46875 98.71875 C145.43394531 99.93111328 145.43394531 99.93111328 145.3984375 101.16796875 C136.41922973 101.19109441 127.44003213 101.20888498 118.46080112 101.21978092 C114.29180922 101.22500926 110.12283763 101.23210601 105.95385742 101.2434082 C101.93386064 101.25423883 97.91388345 101.26024596 93.89387321 101.26284599 C92.35680775 101.26469993 90.81974341 101.26831994 89.28268623 101.27369881 C87.13708263 101.28091159 84.99156095 101.28195959 82.84594727 101.28149414 C81.62239029 101.28371475 80.39883331 101.28593536 79.13819885 101.28822327 C76.3984375 101.16796875 76.3984375 101.16796875 75.3984375 100.16796875 C75.15238132 98.14912228 74.92686522 96.12775952 74.7109375 94.10546875 C73.52761188 86.04295914 70.22049412 81.8577542 64.5234375 76.35546875 C62.3984375 74.16796875 62.3984375 74.16796875 62.3984375 71.16796875 C61.7384375 71.16796875 61.0784375 71.16796875 60.3984375 71.16796875 C60.3984375 70.50796875 60.3984375 69.84796875 60.3984375 69.16796875 C56.48378849 67.58294137 52.54774933 66.06876198 48.5859375 64.60546875 C47.42449219 64.17105469 46.26304687 63.73664063 45.06640625 63.2890625 C26.63402032 57.65530876 3.05046218 60.27184249 -14.6015625 67.16796875 C-15.34148437 67.4309375 -16.08140625 67.69390625 -16.84375 67.96484375 C-24.14769154 70.97736439 -29.31765437 77.80971281 -32.6015625 84.85546875 C-34.68013313 91.56979887 -35.21654138 100.32678634 -32.4765625 106.84375 C-31.16118319 108.9657146 -31.16118319 108.9657146 -29.6953125 110.75 C-28.6015625 112.16796875 -28.6015625 112.16796875 -28.6015625 114.16796875 C-28.0859375 114.39484375 -27.5703125 114.62171875 -27.0390625 114.85546875 C-24.6015625 116.16796875 -24.6015625 116.16796875 -21.6640625 118.48046875 C-14.66756528 123.58806283 -5.84263048 125.86333929 2.3984375 128.16796875 C3.64496094 128.54695312 4.89148438 128.9259375 6.17578125 129.31640625 C17.83898454 132.79589564 29.56217425 134.84093342 41.57519531 136.71386719 C47.87436103 137.72705019 54.13573184 138.95226706 60.3984375 140.16796875 C60.3984375 140.82796875 60.3984375 141.48796875 60.3984375 142.16796875 C62.87611611 142.77886072 65.35499425 143.38305547 67.8359375 143.98046875 C68.97772461 144.25612671 68.97772461 144.25612671 70.14257812 144.53735352 C74.8172191 145.63927433 79.47491767 146.53763135 84.22094727 147.26831055 C91.1273373 148.33768207 97.95160341 149.41647519 103.3984375 154.16796875 C103.7284375 155.15796875 104.0584375 156.14796875 104.3984375 157.16796875 C106.77624547 158.93794354 106.77624547 158.93794354 109.6484375 160.60546875 C113.45683521 162.90594683 117.06504616 165.2056301 120.3984375 168.16796875 C120.3984375 168.82796875 120.3984375 169.48796875 120.3984375 170.16796875 C120.98496094 170.43996094 121.57148438 170.71195313 122.17578125 170.9921875 C127.57776664 173.84982828 131.50260435 177.81067743 134.3984375 183.16796875 C134.86378906 183.60625 135.32914063 184.04453125 135.80859375 184.49609375 C137.77009017 186.5587976 138.8343544 188.67844195 140.0859375 191.23046875 C140.52292969 192.10832031 140.95992188 192.98617187 141.41015625 193.890625 C142.3984375 196.16796875 142.3984375 196.16796875 142.3984375 198.16796875 C143.0584375 198.16796875 143.7184375 198.16796875 144.3984375 198.16796875 C145.04902279 201.00028422 145.69400463 203.83369076 146.3359375 206.66796875 C146.51833984 207.45945312 146.70074219 208.2509375 146.88867188 209.06640625 C149.08237041 218.79845064 149.58066808 228.01600348 149.5859375 237.98046875 C149.59818359 239.18767578 149.61042969 240.39488281 149.62304688 241.63867188 C149.63931025 251.66233016 148.9589092 260.85265772 144.3984375 269.90234375 C143.27027181 272.28919046 143.27027181 272.28919046 142.5546875 275.48046875 C141.23710596 279.68248554 139.34810417 282.80216682 136.8984375 286.41796875 C136.29322266 287.33449219 136.29322266 287.33449219 135.67578125 288.26953125 C134.59182189 289.90799127 133.49572977 291.53840784 132.3984375 293.16796875 C131.7384375 294.15796875 131.0784375 295.14796875 130.3984375 296.16796875 C129.4084375 296.16796875 128.4184375 296.16796875 127.3984375 296.16796875 C127.0684375 297.15796875 126.7384375 298.14796875 126.3984375 299.16796875 C124.11042063 301.25702763 121.79973167 303.21559377 119.3984375 305.16796875 C118.13193359 306.22951172 118.13193359 306.22951172 116.83984375 307.3125 C100.21623302 321.15371914 100.21623302 321.15371914 91.30859375 323.5625 C89.10348037 324.16428968 89.10348037 324.16428968 86.3984375 326.16796875 C84.609278 326.6961867 82.79919578 327.15517648 80.98046875 327.5703125 C79.3574585 327.94410034 79.3574585 327.94410034 77.70166016 328.32543945 C76.54972168 328.58284912 75.3977832 328.84025879 74.2109375 329.10546875 C73.0357959 329.37125732 71.8606543 329.6370459 70.64990234 329.91088867 C52.97684183 333.87184059 36.19594291 336.3511518 18.0234375 336.29296875 C16.79238281 336.29683594 15.56132812 336.30070312 14.29296875 336.3046875 C13.10316406 336.30339844 11.91335937 336.30210937 10.6875 336.30078125 C9.62225098 336.29965332 8.55700195 336.29852539 7.45947266 336.29736328 C4.36095648 336.16638437 1.44973722 335.70463989 -1.6015625 335.16796875 C-3.07226739 335.05628754 -4.5454443 334.97200712 -6.01953125 334.921875 C-6.79876953 334.88900391 -7.57800781 334.85613281 -8.38085938 334.82226562 C-9.99788703 334.7606271 -11.61508824 334.70339676 -13.23242188 334.65039062 C-14.00779297 334.61623047 -14.78316406 334.58207031 -15.58203125 334.546875 C-16.28223389 334.52181885 -16.98243652 334.4967627 -17.70385742 334.47094727 C-19.6015625 334.16796875 -19.6015625 334.16796875 -22.6015625 332.16796875 C-24.18147528 331.64765174 -25.78129036 331.1862153 -27.390625 330.765625 C-28.33292969 330.51490234 -29.27523437 330.26417969 -30.24609375 330.00585938 C-31.22964844 329.74998047 -32.21320313 329.49410156 -33.2265625 329.23046875 C-47.82820995 325.39876127 -59.77522183 320.8169077 -72.1171875 311.89453125 C-74.6499236 310.13435931 -77.24320135 308.58385018 -79.9140625 307.04296875 C-86.22757315 303.2964899 -89.35764128 300.22029258 -91.6015625 293.16796875 C-92.5915625 292.83796875 -93.5815625 292.50796875 -94.6015625 292.16796875 C-95.55841738 290.56181948 -96.50178351 288.94608088 -97.375 287.29296875 C-98.73399698 284.93852813 -100.32261375 282.88715963 -101.9765625 280.73046875 C-113.41703764 264.37991845 -114.1207953 244.41794235 -115.6015625 225.16796875 C-92.5015625 225.16796875 -69.4015625 225.16796875 -45.6015625 225.16796875 C-44.59508128 228.69065304 -43.59034406 232.21802024 -42.7890625 235.79296875 C-42.4053313 237.25453315 -42.00774435 238.7124838 -41.6015625 240.16796875 C-41.34375 241.15023437 -41.0859375 242.1325 -40.8203125 243.14453125 C-37.38436936 254.05104774 -30.27453386 260.35413369 -21.24609375 266.8671875 C-17.55456901 268.68295964 -13.79546539 269.49239621 -9.7890625 270.35546875 C-9.00080078 270.53271484 -8.21253906 270.70996094 -7.40039062 270.89257812 C-5.46920753 271.3256313 -3.53561027 271.74789443 -1.6015625 272.16796875 C-1.6015625 272.49796875 -1.6015625 272.82796875 -1.6015625 273.16796875 C3.04560486 274.07133319 7.56871012 274.34256749 12.2890625 274.37109375 C13.03371765 274.37679382 13.7783728 274.3824939 14.54559326 274.3883667 C16.11550496 274.39777081 17.685436 274.40433232 19.25537109 274.40820312 C21.62763879 274.41788387 23.99902971 274.44893976 26.37109375 274.48046875 C37.85440175 274.56323242 46.73838471 273.14115125 56.6484375 267.16796875 C59.9712266 265.1772888 63.25988901 263.23474299 66.75390625 261.55078125 C70.13027174 259.78529619 70.23418798 258.73833396 71.3984375 255.16796875 C71.7903125 254.59820312 72.1821875 254.0284375 72.5859375 253.44140625 C77.47026632 246.25367236 78.28976913 237.68849485 77.3984375 229.16796875 C76.27460933 225.62103426 74.71777817 223.05076506 72.3984375 220.16796875 C71.8003125 219.26046875 71.2021875 218.35296875 70.5859375 217.41796875 C66.86650733 213.59226915 62.45612184 210.85386353 57.3984375 209.16796875 C57.3984375 208.50796875 57.3984375 207.84796875 57.3984375 207.16796875 C56.31175781 206.87792969 56.31175781 206.87792969 55.203125 206.58203125 C47.00221108 204.37325177 47.00221108 204.37325177 43.2734375 203.10546875 C40.27467407 202.12761111 37.2622647 201.45058522 34.1796875 200.79296875 C31.4459188 200.17863871 28.73318532 199.49882272 26.01904297 198.8034668 C19.17452142 197.05256215 12.30940344 195.44832051 5.3984375 193.98046875 C4.23368896 193.73031006 4.23368896 193.73031006 3.04541016 193.47509766 C-0.58415075 192.71611146 -4.16366394 192.07592941 -7.8515625 191.6796875 C-11.20448008 191.22215396 -13.53565634 190.49336048 -16.6015625 189.16796875 C-18.70066303 188.62707903 -20.80565508 188.10886014 -22.9140625 187.60546875 C-39.92653464 183.26699477 -62.20180789 177.15078392 -74.6015625 164.16796875 C-76.49412471 162.49758853 -78.39013781 160.83111241 -80.2890625 159.16796875 C-86.64098652 153.45902788 -91.65713265 147.10289518 -96.6015625 140.16796875 C-97.1378125 139.48347656 -97.6740625 138.79898438 -98.2265625 138.09375 C-102.09714159 132.78322333 -102.88719993 126.81348704 -103.92578125 120.4609375 C-104.41158684 117.04548077 -104.41158684 117.04548077 -106.6015625 114.16796875 C-106.77547125 111.23510078 -106.83633722 108.41063647 -106.7890625 105.48046875 C-106.7797168 104.63121826 -106.77037109 103.78196777 -106.76074219 102.90698242 C-106.7231483 100.32674007 -106.66545164 97.7476816 -106.6015625 95.16796875 C-106.58754395 94.44222656 -106.57352539 93.71648437 -106.55908203 92.96875 C-106.38042696 85.23316976 -105.54154838 77.86314252 -103.7265625 70.35546875 C-103.56510742 69.67911377 -103.40365234 69.00275879 -103.23730469 68.3059082 C-102.28876234 64.70835413 -101.32585918 62.65188631 -98.6015625 60.16796875 C-97.71404704 58.00557794 -97.71404704 58.00557794 -97.1015625 55.66796875 C-96.1494523 52.26757519 -95.18919453 50.55396712 -92.6015625 48.16796875 C-92.0859375 47.28109375 -91.5703125 46.39421875 -91.0390625 45.48046875 C-90.5646875 44.71734375 -90.0903125 43.95421875 -89.6015625 43.16796875 C-88.9415625 43.16796875 -88.2815625 43.16796875 -87.6015625 43.16796875 C-87.36308594 42.43191406 -87.12460938 41.69585937 -86.87890625 40.9375 C-81.44840253 29.16310508 -64.20537585 20.7953521 -53.6015625 14.16796875 C-52.6115625 13.50796875 -51.6215625 12.84796875 -50.6015625 12.16796875 C-49.6528125 11.85859375 -48.7040625 11.54921875 -47.7265625 11.23046875 C-44.65617392 10.34764165 -44.65617392 10.34764165 -42.5390625 8.73046875 C-38.36303667 6.50917842 -34.10647117 5.91254752 -29.4765625 5.10546875 C-27.68117205 4.78750842 -25.88683313 4.46353672 -24.09375 4.1328125 C-23.30339355 3.99480225 -22.51303711 3.85679199 -21.69873047 3.71459961 C-19.32060776 3.21676175 -19.32060776 3.21676175 -16.6015625 1.16796875 C-11.13890846 -0.161513 -5.5879145 0.00635755 0 0 Z " fill="#41CF59" transform="translate(151.6015625,185.83203125)"/>
<path d="M0 0 C22.77 0 45.54 0 69 0 C69 42.9 69 85.8 69 130 C115.53 130 162.06 130 210 130 C210 87.1 210 44.2 210 0 C232.77 0 255.54 0 279 0 C279 107.25 279 214.5 279 325 C258.42601427 335.28699287 233.00241533 326 210 326 C210 281.12 210 236.24 210 190 C210.33 190.66 210.66 191.32 211 192 C211.66 192 212.32 192 213 192 C213.07719784 220.31379143 212.87534632 248.61906329 212.53643799 276.9307251 C212.46337723 283.08483946 212.39385208 289.2389948 212.32368469 295.3931427 C212.21839201 304.59546125 212.10881075 313.79771937 212 323 C233.12 323 254.24 323 276 323 C275.9278125 317.7303125 275.855625 312.460625 275.78125 307.03125 C275.09003499 252.80959207 274.88714784 198.59206691 274.87716937 144.36660147 C274.87589832 137.92221456 274.87215392 131.47783247 274.86743164 125.03344727 C274.83969751 84.3383046 275.04356076 43.68662154 276 3 C255.87 3.33 235.74 3.66 215 4 C214.16859163 7.32563349 213.87000401 9.65457678 213.85523987 13.00976562 C213.84834137 14.01918213 213.84144287 15.02859863 213.83433533 16.06860352 C213.83172195 17.17002686 213.82910858 18.2714502 213.82641602 19.40625 C213.8163855 21.1531311 213.8163855 21.1531311 213.80615234 22.93530273 C213.79210103 25.46491448 213.78020723 27.99453892 213.77020454 30.52416992 C213.75380534 34.52461723 213.73078038 38.52499378 213.70530701 42.52539062 C213.63416366 53.89968913 213.5742848 65.2740318 213.52319336 76.6484375 C213.49488909 82.93313649 213.45951136 89.21775654 213.41653961 95.50237274 C213.39416466 98.82686774 213.37680697 102.15127425 213.36609077 105.47583008 C213.35397003 109.18191685 213.32983455 112.88774498 213.30297852 116.59375 C213.30238937 117.69517334 213.30180023 118.79659668 213.30119324 119.93139648 C213.28661575 121.44552124 213.28661575 121.44552124 213.27174377 122.99023438 C213.26751184 123.86627319 213.2632799 124.74231201 213.25891972 125.64489746 C212.97682984 128.21075299 212.37685518 129.82615398 211 132 C207.53961961 133.73019019 203.54057508 133.29161573 199.7265625 133.38671875 C198.73597336 133.41319489 197.74538422 133.43967102 196.72477722 133.46694946 C193.35832545 133.55030968 189.99182917 133.62114628 186.625 133.6875 C185.46181244 133.7105722 184.29862488 133.73364441 183.10018921 133.75741577 C159.28615843 134.18780551 135.48779055 133.86682115 111.67717743 133.36978531 C108.80847689 133.31241955 105.93973052 133.26236385 103.07086182 133.21420288 C98.51290014 133.13635923 93.9558306 133.03796042 89.3986454 132.92350388 C87.70071628 132.88366394 86.00262195 132.85028923 84.30443382 132.82368851 C81.9661549 132.78541866 79.62977767 132.72270094 77.29223633 132.65356445 C75.97475906 132.62390091 74.6572818 132.59423737 73.29988098 132.56367493 C69.39000792 131.89580314 68.43597729 131.05339079 66 128 C65.49219131 125.57125473 65.49219131 125.57125473 65.48101807 122.8114624 C65.46710526 121.76260864 65.45319244 120.71375488 65.43885803 119.63311768 C65.4438884 118.4880072 65.44891876 117.34289673 65.45410156 116.16308594 C65.44376389 114.95305908 65.43342621 113.74303223 65.42277527 112.49633789 C65.39833951 109.18236124 65.39151056 105.86922462 65.39249516 102.55521679 C65.38936617 99.09045744 65.36374835 95.6258662 65.34051514 92.16119385 C65.29995028 85.60229215 65.27961337 79.04348988 65.26654124 72.48448205 C65.24911598 64.2838305 65.20469473 56.08335396 65.16015625 47.8828125 C65.08083063 33.25521302 65.04235048 18.62785703 65 4 C34.805 3.505 34.805 3.505 4 3 C3.67 108.6 3.34 214.2 3 323 C3.66 322.67 4.32 322.34 5 322 C6.59668573 321.90396693 8.19730525 321.86925413 9.796875 321.8671875 C11.23546875 321.86525391 11.23546875 321.86525391 12.703125 321.86328125 C13.70859375 321.86714844 14.7140625 321.87101562 15.75 321.875 C16.74 321.87113281 17.73 321.86726563 18.75 321.86328125 C19.71421875 321.86457031 20.6784375 321.86585938 21.671875 321.8671875 C22.5494043 321.86831543 23.42693359 321.86944336 24.33105469 321.87060547 C27 322 27 322 29.89282227 322.49560547 C35.25988954 323.3668525 40.68025947 323.22480611 46.10522461 323.24023438 C48.19228776 323.25002245 50.2783982 323.28113743 52.36523438 323.3125 C53.68201172 323.31765625 54.99878906 323.3228125 56.35546875 323.328125 C57.55840576 323.3374707 58.76134277 323.34681641 60.00073242 323.35644531 C62.92829435 323.25225614 62.92829435 323.25225614 64.66253376 321.81347179 C66.48856888 319.33754897 66.3841825 317.69116541 66.39872742 314.62800598 C66.41125644 313.51553151 66.42378546 312.40305704 66.43669415 311.25687122 C66.43526818 310.03104171 66.43384222 308.80521219 66.43237305 307.54223633 C66.44264684 306.23346622 66.45292063 304.9246961 66.46350574 303.57626629 C66.49101731 300.0335251 66.50058994 296.49094692 66.50647736 292.94811249 C66.51470938 289.62464021 66.53907867 286.30130334 66.56213379 282.97790527 C66.62015569 273.25618685 66.65224002 263.53432763 66.6875 253.8125 C66.790625 232.094375 66.89375 210.37625 67 188 C113.86 188 160.72 188 209 188 C209 188.33 209 188.66 209 189 C162.8 189 116.6 189 69 189 C69 234.21 69 279.42 69 326 C46.23 326 23.46 326 0 326 C0 218.42 0 110.84 0 0 Z " fill="#59C16A" transform="translate(350,191)"/>
<path d="M0 0 C0.33 0 0.66 0 1 0 C1 107.25 1 214.5 1 325 C-19.57398573 335.28699287 -44.99758467 326 -68 326 C-68 281.12 -68 236.24 -68 190 C-67.67 190.66 -67.34 191.32 -67 192 C-66.34 192 -65.68 192 -65 192 C-64.92280216 220.31379143 -65.12465368 248.61906329 -65.46356201 276.9307251 C-65.53662277 283.08483946 -65.60614792 289.2389948 -65.67631531 295.3931427 C-65.78160799 304.59546125 -65.89118925 313.79771937 -66 323 C-44.88 323 -23.76 323 -2 323 C-2.0721875 317.7303125 -2.144375 312.460625 -2.21875 307.03125 C-2.91868372 252.07450075 -3.11293834 197.12207852 -3.12283063 142.16147125 C-3.12411878 135.47141501 -3.12787684 128.78136322 -3.13256836 122.09130859 C-3.13873075 112.94965084 -3.13864657 103.80800791 -3.13431931 94.66634941 C-3.13285048 91.25813842 -3.13353802 87.84993883 -3.13615799 84.44172859 C-3.13905417 80.46747102 -3.13705894 76.49324479 -3.13136959 72.51899052 C-3.13008259 71.08007323 -3.13043549 69.64115325 -3.13267231 68.20223713 C-3.14503544 59.41854228 -2.81270966 50.74732663 -2 42 C-1.67 42 -1.34 42 -1 42 C-0.67 28.14 -0.34 14.28 0 0 Z " fill="#54B263" transform="translate(628,191)"/>
<path d="M0 0 C4.05849062 1.50314467 6.73802583 4.39930642 9 8 C12.60145848 16.77310301 12.25692805 27.7571212 9.10546875 36.6640625 C5.18512282 44.94804436 -1.37681568 54.22735686 -10 58 C-12.32315031 58.7013284 -14.65789079 59.36485174 -17 60 C-18.08667969 60.33773437 -19.17335937 60.67546875 -20.29296875 61.0234375 C-27.07718882 62.81063984 -34.02223049 62.79359104 -41 63 C-42.1957666 63.03931641 -43.3915332 63.07863281 -44.62353516 63.11914062 C-48.00114218 63.21746494 -51.37659346 63.29119664 -54.75512695 63.34002686 C-56.76482311 63.37418954 -58.7740697 63.43216823 -60.78320312 63.49072266 C-69.59100147 63.56534614 -76.16630038 62.04809743 -84 58 C-84 57.34 -84 56.68 -84 56 C-84.93972656 55.90912109 -84.93972656 55.90912109 -85.8984375 55.81640625 C-86.71570313 55.73261719 -87.53296875 55.64882813 -88.375 55.5625 C-89.18710938 55.48128906 -89.99921875 55.40007812 -90.8359375 55.31640625 C-93 55 -93 55 -95 54 C-95.33 53.01 -95.66 52.02 -96 51 C-97.2375 50.2884375 -97.2375 50.2884375 -98.5 49.5625 C-101 48 -101 48 -101.8125 45.8125 C-101.9053125 44.9153125 -101.9053125 44.9153125 -102 44 C-102.5775 43.95875 -103.155 43.9175 -103.75 43.875 C-107.13097963 42.56017459 -108.12781519 40.01965292 -110 37 C-110.53625 36.46375 -111.0725 35.9275 -111.625 35.375 C-114.52807143 32.47192857 -114.98743807 30.37685787 -115.125 26.25 C-115.08375 25.1775 -115.0425 24.105 -115 23 C-115.66 23 -116.32 23 -117 23 C-117 19.7 -117 16.4 -117 13 C-138.78 13 -160.56 13 -183 13 C-182.34 16.63 -181.68 20.26 -181 24 C-180.69361913 26.10491695 -180.40509086 28.21266158 -180.1484375 30.32421875 C-180.01953125 31.37158203 -179.890625 32.41894531 -179.7578125 33.49804688 C-179.56832031 35.07682617 -179.56832031 35.07682617 -179.375 36.6875 C-179.2409375 37.78255859 -179.106875 38.87761719 -178.96875 40.00585938 C-178.64297436 42.67023872 -178.32010298 45.33493425 -178 48 C-176.68 48 -175.36 48 -174 48 C-173.79842285 48.52432617 -173.5968457 49.04865234 -173.38916016 49.58886719 C-172.4698258 51.97670748 -171.54744394 54.36335934 -170.625 56.75 C-170.30789062 57.575 -169.99078125 58.4 -169.6640625 59.25 C-169.3546875 60.04921875 -169.0453125 60.8484375 -168.7265625 61.671875 C-168.44377441 62.4050293 -168.16098633 63.13818359 -167.86962891 63.89355469 C-166.38356153 67.49315865 -165.50007101 69.60708706 -162.375 72.0625 C-161.59125 72.701875 -160.8075 73.34125 -160 74 C-160 74.99 -160 75.98 -160 77 C-159.34 77 -158.68 77 -158 77 C-157.608125 77.70125 -157.21625 78.4025 -156.8125 79.125 C-153.23305428 84.80274149 -148.56913099 88.39777293 -142 90 C-142 90.99 -142 91.98 -142 93 C-141.21625 93.28875 -140.4325 93.5775 -139.625 93.875 C-137 95 -137 95 -135 97 C-135.495 98.485 -135.495 98.485 -136 100 C-157.60156468 87.59597653 -157.60156468 87.59597653 -160.3125 80.625 C-160.539375 79.75875 -160.76625 78.8925 -161 78 C-162.485 77.505 -162.485 77.505 -164 77 C-164.95685488 75.39385073 -165.90022101 73.77811213 -166.7734375 72.125 C-168.13243448 69.77055938 -169.72105125 67.71919088 -171.375 65.5625 C-182.81547514 49.2119497 -183.5192328 29.2499736 -185 10 C-161.9 10 -138.8 10 -115 10 C-113.99351878 13.52268429 -112.98878156 17.05005149 -112.1875 20.625 C-111.8037688 22.0865644 -111.40618185 23.54451505 -111 25 C-110.7421875 25.98226563 -110.484375 26.96453125 -110.21875 27.9765625 C-106.78280686 38.88307899 -99.67297136 45.18616494 -90.64453125 51.69921875 C-86.95300651 53.51499089 -83.19390289 54.32442746 -79.1875 55.1875 C-78.39923828 55.36474609 -77.61097656 55.54199219 -76.79882812 55.72460938 C-74.86764503 56.15766255 -72.93404777 56.57992568 -71 57 C-71 57.33 -71 57.66 -71 58 C-66.35283264 58.90336444 -61.82972738 59.17459874 -57.109375 59.203125 C-56.36471985 59.20882507 -55.6200647 59.21452515 -54.85284424 59.22039795 C-53.28293254 59.22980206 -51.7130015 59.23636357 -50.14306641 59.24023438 C-47.77079871 59.24991512 -45.39940779 59.28097101 -43.02734375 59.3125 C-31.54403575 59.39526367 -22.66005279 57.9731825 -12.75 52 C-9.4272109 50.00932005 -6.13854849 48.06677424 -2.64453125 46.3828125 C0.73183424 44.61732744 0.83575048 43.57036521 2 40 C2.391875 39.43023437 2.78375 38.86046875 3.1875 38.2734375 C8.06395411 31.09729196 8.90964686 22.51015595 8 14 C6.84716833 10.4946419 5.24727914 7.89866439 3 5 C2.401875 3.989375 1.80375 2.97875 1.1875 1.9375 C0.5996875 0.9784375 0.5996875 0.9784375 0 0 Z " fill="#54B463" transform="translate(221,401)"/>
<path d="M0 0 C1.25154877 -0.00637985 2.50309753 -0.0127597 3.79257202 -0.01933289 C5.16981976 -0.02086161 6.54706801 -0.02197555 7.92431641 -0.02270508 C9.32817622 -0.02591633 10.73203568 -0.0292803 12.13589478 -0.03279114 C15.08328019 -0.0387893 18.03063625 -0.04063038 20.97802734 -0.04003906 C24.75668148 -0.03993751 28.5351474 -0.05357932 32.31375694 -0.07081127 C35.21508652 -0.08192618 38.11637057 -0.08395841 41.01771927 -0.08342934 C42.41078972 -0.08461063 43.8038613 -0.08904073 45.19691086 -0.0967617 C47.14557227 -0.10654884 49.09428859 -0.1024226 51.04296875 -0.09765625 C52.15247894 -0.09908127 53.26198914 -0.10050629 54.40512085 -0.10197449 C57.15087891 0.14526367 57.15087891 0.14526367 60.15087891 2.14526367 C60.52002239 4.3747654 60.52002239 4.3747654 60.51164246 7.20718384 C60.51576645 8.27853073 60.51989044 9.34987762 60.5241394 10.45368958 C60.51335358 11.63404282 60.50256775 12.81439606 60.49145508 14.03051758 C60.4921122 15.88901085 60.4921122 15.88901085 60.49278259 17.78504944 C60.4910474 21.18792781 60.47597537 24.59026395 60.45506072 27.99304628 C60.43634002 31.54713636 60.43454713 35.10123322 60.4309845 38.65536499 C60.42165043 45.38794374 60.39701836 52.1203768 60.36693603 58.85289133 C60.33343425 66.51661656 60.31691666 74.18034865 60.30184972 81.84412885 C60.27046989 97.61125824 60.2176831 113.37824219 60.15087891 129.14526367 C57.61262882 126.60701359 57.89373459 125.71645142 57.87240601 122.19723511 C57.86124252 121.15113068 57.85007904 120.10502625 57.83857727 119.02722168 C57.83641708 117.87492065 57.8342569 116.72261963 57.83203125 115.53540039 C57.82198563 114.32566559 57.81194 113.11593079 57.80158997 111.86953735 C57.77594596 108.54741017 57.75912263 105.22545479 57.74616194 101.90326834 C57.73055812 98.43319395 57.70375921 94.9632068 57.6781311 91.49319458 C57.63129446 84.92009039 57.59457409 78.34696988 57.56145823 71.7737838 C57.51952703 63.55770669 57.46414597 55.34172749 57.40869141 47.12573242 C57.3098014 32.46562976 57.23131338 17.80550502 57.15087891 3.14526367 C26.95587891 2.65026367 26.95587891 2.65026367 -3.84912109 2.14526367 C-4.17912109 107.74526367 -4.50912109 213.34526367 -4.84912109 322.14526367 C-4.18912109 321.81526367 -3.52912109 321.48526367 -2.84912109 321.14526367 C-1.25243537 321.0492306 0.34818416 321.0145178 1.94775391 321.01245117 C3.38634766 321.01051758 3.38634766 321.01051758 4.85400391 321.00854492 C5.85947266 321.01241211 6.86494141 321.0162793 7.90087891 321.02026367 C8.89087891 321.01639648 9.88087891 321.0125293 10.90087891 321.00854492 C15.76091764 321.0150423 20.37475642 321.12180885 25.15087891 322.14526367 C25.15087891 322.47526367 25.15087891 322.80526367 25.15087891 323.14526367 C20.75431718 323.16991871 16.35779171 323.1881021 11.96118164 323.20019531 C10.46442972 323.20523488 8.96768275 323.21206655 7.47094727 323.22070312 C5.32388084 323.23278526 3.17687929 323.23849559 1.02978516 323.24291992 C-0.91045532 323.25077515 -0.91045532 323.25077515 -2.88989258 323.25878906 C-5.84912109 323.14526367 -5.84912109 323.14526367 -6.84912109 322.14526367 C-6.94731967 320.43642528 -6.97467698 318.72349073 -6.97496223 317.01183319 C-6.97756998 315.89228886 -6.98017773 314.77274453 -6.9828645 313.61927462 C-6.98063378 312.37387517 -6.97840306 311.12847573 -6.97610474 309.84533691 C-6.97766473 308.53436775 -6.97922472 307.22339858 -6.98083198 305.87270308 C-6.98502988 302.21697926 -6.98293255 298.56128134 -6.97984576 294.90555739 C-6.97759374 290.96959359 -6.98107028 287.03363441 -6.98382568 283.09767151 C-6.98828451 275.38044941 -6.98730642 267.66323701 -6.98441304 259.94601452 C-6.98215945 253.67697579 -6.9818463 247.40793978 -6.98293686 241.13890076 C-6.98309009 240.24843401 -6.98324333 239.35796727 -6.9834012 238.44051668 C-6.98372091 236.63184694 -6.98404512 234.82317721 -6.98437379 233.01450747 C-6.98722891 216.03374147 -6.98394106 199.05298086 -6.97857343 182.07221574 C-6.97410536 167.48539698 -6.97488128 152.89858619 -6.97949219 138.31176758 C-6.98483739 121.39393053 -6.98695422 104.47609821 -6.98387992 87.55826044 C-6.98356136 85.75604916 -6.98324699 83.95383787 -6.98293686 82.15162659 C-6.98270545 80.82136104 -6.98270545 80.82136104 -6.98246936 79.46422145 C-6.98160404 73.19891972 -6.9830674 66.93362097 -6.98541641 60.6683197 C-6.98821401 53.03845893 -6.98747701 45.40860845 -6.98213567 37.77874887 C-6.9794981 33.88199953 -6.97849452 29.98526738 -6.98178482 26.08851814 C-6.98528971 21.87406044 -6.98111974 17.65964658 -6.97610474 13.44519043 C-6.97833546 12.19979099 -6.98056618 10.95439155 -6.9828645 9.67125273 C-6.98025675 8.5517084 -6.977649 7.43216407 -6.97496223 6.27869415 C-6.97479988 5.30449414 -6.97463753 4.33029412 -6.97447026 3.3265729 C-6.72071937 -1.08916571 -3.77706469 0.012995 0 0 Z " fill="#51C865" transform="translate(357.84912109375,191.854736328125)"/>
<path d="M0 0 C9.06988259 5.64231068 16.06382571 14.18421812 22 23 C22.60972656 23.89203125 23.21945312 24.7840625 23.84765625 25.703125 C28.49494559 32.99373908 30.32058744 39.40335134 31 48 C31.66 48 32.32 48 33 48 C32.93489583 49.92057292 32.86979167 51.84114583 32.8046875 53.76171875 C32.8827331 56.06658515 32.8827331 56.06658515 34.00439453 58.24536133 C35.15885323 61.43951471 35.19939438 63.92755585 35.125 67.3125 C35.10695313 68.38113281 35.08890625 69.44976562 35.0703125 70.55078125 C35.04710937 71.35902344 35.02390625 72.16726563 35 73 C26.02079223 73.02312566 17.04159463 73.04091623 8.06236362 73.05181217 C3.89337172 73.05704051 -0.27559987 73.06413726 -4.44458008 73.07543945 C-8.46457686 73.08627008 -12.48455405 73.09227721 -16.50456429 73.09487724 C-18.04162975 73.09673118 -19.57869409 73.10035119 -21.11575127 73.10573006 C-23.26135487 73.11294284 -25.40687655 73.11399084 -27.55249023 73.11352539 C-28.77604721 73.115746 -29.99960419 73.11796661 -31.26023865 73.12025452 C-34 73 -34 73 -35 72 C-35.24605618 69.98115353 -35.47157228 67.95979077 -35.6875 65.9375 C-36.87082562 57.87499039 -40.17794338 53.68978545 -45.875 48.1875 C-48 46 -48 46 -48 43 C-48.66 43 -49.32 43 -50 43 C-50 42.34 -50 41.68 -50 41 C-53.91464901 39.41497262 -57.85068817 37.90079323 -61.8125 36.4375 C-62.97394531 36.00308594 -64.13539063 35.56867188 -65.33203125 35.12109375 C-83.76441718 29.48734001 -107.34797532 32.10387374 -125 39 C-126.10988281 39.39445312 -126.10988281 39.39445312 -127.2421875 39.796875 C-134.54612904 42.80939564 -139.71609187 49.64174406 -143 56.6875 C-145.07857063 63.40183012 -145.61497888 72.15881759 -142.875 78.67578125 C-141.55962069 80.79774585 -141.55962069 80.79774585 -140.09375 82.58203125 C-139 84 -139 84 -139 86 C-138.484375 86.226875 -137.96875 86.45375 -137.4375 86.6875 C-135 88 -135 88 -132.0625 90.3125 C-125.07025958 95.41698653 -116.2409475 97.70753374 -108 100 C-106.24055787 100.50145634 -104.48147071 101.00415908 -102.72265625 101.5078125 C-100.8359375 102.046875 -98.94921875 102.5859375 -97.0625 103.125 C-93.70833333 104.08333333 -90.35416667 105.04166667 -87 106 C-87 106.33 -87 106.66 -87 107 C-94.42857143 107.14285714 -94.42857143 107.14285714 -98 106 C-98 105.34 -98 104.68 -98 104 C-98.98484375 104.02835937 -99.9696875 104.05671875 -100.984375 104.0859375 C-105.18015453 104.08382482 -109.14089368 103.42228929 -113.25 102.625 C-113.95640625 102.49867188 -114.6628125 102.37234375 -115.390625 102.2421875 C-118.831927 101.59042576 -121.0477097 100.96819354 -124 99 C-124 98.34 -124 97.68 -124 97 C-125.32 97 -126.64 97 -128 97 C-128 96.34 -128 95.68 -128 95 C-129.2684375 94.690625 -129.2684375 94.690625 -130.5625 94.375 C-134.73319073 92.70672371 -138.05651511 90.42245432 -141 87 C-141 86.01 -141 85.02 -141 84 C-141.93585938 83.87818359 -141.93585938 83.87818359 -142.890625 83.75390625 C-145 83 -145 83 -146.046875 81.27734375 C-147.72268125 75.70063294 -148.30386522 70.41655696 -148.375 64.625 C-148.38885742 63.935271 -148.40271484 63.24554199 -148.41699219 62.53491211 C-148.38786084 59.40137591 -148.15409556 57.27289549 -146.6015625 54.5234375 C-145 53 -145 53 -143 53 C-142.773125 52.13375 -142.54625 51.2675 -142.3125 50.375 C-139.62966768 43.47628833 -135.67091407 40.44935914 -129.28125 37.17578125 C-126.95721777 36.02363721 -126.95721777 36.02363721 -124.71313477 34.53100586 C-115.2661713 29.2001404 -103.92589858 29.5765192 -93.39526367 29.71875 C-91.04134387 29.75028341 -88.68809599 29.75977567 -86.33398438 29.765625 C-84.81770022 29.77478424 -83.30142279 29.78515655 -81.78515625 29.796875 C-80.74440697 29.80324982 -80.74440697 29.80324982 -79.68263245 29.80975342 C-75.69540335 29.86794378 -71.91422431 30.24110814 -68 31 C-68 31.66 -68 32.32 -68 33 C-66.824375 32.938125 -65.64875 32.87625 -64.4375 32.8125 C-55.40815556 32.86010639 -48.9054884 38.57079067 -42.4375 44.25 C-37.03879066 50.34085156 -33.07528051 55.94607858 -30.78515625 63.84375 C-30.44492432 65.00068359 -30.10469238 66.15761719 -29.75415039 67.34960938 C-29.50528076 68.22423828 -29.25641113 69.09886719 -29 70 C-28.36852554 69.99777939 -27.73705109 69.99555878 -27.08644104 69.99327087 C-20.48349577 69.97105896 -13.88056122 69.95602729 -7.27758789 69.94506836 C-4.81697152 69.9400556 -2.35635811 69.93324369 0.10424805 69.92456055 C3.65153739 69.91236068 7.19878717 69.90674097 10.74609375 69.90234375 C11.8370787 69.89718246 12.92806366 69.89202118 14.05210876 69.88670349 C20.12136281 69.88626287 25.98185864 70.20400785 32 71 C31.83701416 70.42024414 31.67402832 69.84048828 31.50610352 69.24316406 C30.72322444 65.77326877 30.89687641 62.287377 30.9375 58.75 C30.94201172 58.00492187 30.94652344 57.25984375 30.95117188 56.4921875 C30.96290754 54.6614236 30.9808415 52.83070127 31 51 C30.01 50.67 29.02 50.34 28 50 C27.34 45.05 26.68 40.1 26 35 C25.01 34.67 24.02 34.34 23 34 C21.00603743 31.33916031 19 28.38757675 19 25 C17.02 24.01 17.02 24.01 15 23 C15 21.02 15 19.04 15 17 C14.01 17 13.02 17 12 17 C10.5703125 15.171875 10.5703125 15.171875 9.125 12.75 C6.78393039 9.01946763 4.49811542 6.69854618 1 4 C0.1875 1.75 0.1875 1.75 0 0 Z " fill="#50B961" transform="translate(262,214)"/>
<path d="M0 0 C7.53720021 -0.0232729 15.07439665 -0.04099077 22.61162472 -0.05181217 C26.11227128 -0.05700851 29.61289308 -0.06404644 33.11352539 -0.07543945 C37.14730046 -0.08848396 41.18104992 -0.09325506 45.21484375 -0.09765625 C46.45894516 -0.10281754 47.70304657 -0.10797882 48.98484802 -0.11329651 C65.33162095 -0.11434237 65.33162095 -0.11434237 70.21575642 1.92532253 C73.2213439 5.42015064 72.51099906 9.42774196 72.43632507 13.87623596 C72.43495365 14.90235975 72.43358224 15.92848353 72.43216926 16.98570198 C72.42266835 20.44078913 72.38441574 23.89497054 72.34643555 27.34985352 C72.33381429 29.81991768 72.32297177 32.28999149 72.31378174 34.7600708 C72.29005259 40.08694763 72.25406969 45.4135286 72.20715904 50.74023628 C72.1394247 58.44392871 72.09476306 66.14762007 72.05595443 73.85150623 C71.99244438 86.35286381 71.91174974 98.85404764 71.81958008 111.35522461 C71.73012411 123.49516134 71.64620563 135.63510916 71.5715332 147.77514648 C71.56692991 148.5229634 71.56232662 149.27078031 71.55758383 150.04125834 C71.50752173 158.20078293 71.45908799 166.36031649 71.41193104 174.51985836 C71.4077834 175.23644038 71.40363577 175.9530224 71.39936245 176.69131903 C71.37449816 180.98753226 71.37449816 180.98753226 71.34980366 185.28374647 C71.30164331 193.67894392 71.24845998 202.0740764 71.18640206 210.4691832 C71.14295393 216.35340138 71.10394161 222.23764299 71.06646729 228.12190247 C71.05011486 230.5415263 71.0319883 232.96113885 71.01200294 235.3807354 C70.98499327 238.6707275 70.96405787 241.96070345 70.94462585 245.25074768 C70.93509359 246.21950366 70.92556132 247.18825964 70.91574019 248.18637186 C70.91178105 249.06283615 70.90782191 249.93930044 70.90374279 250.84232426 C70.89536413 251.9824634 70.89536413 251.9824634 70.8868162 253.14563566 C70.88423131 255.09503898 70.88423131 255.09503898 72 257 C72.10180009 259.03619925 72.13841795 261.07577103 72.14526367 263.11450195 C72.15164352 264.39956131 72.15802338 265.68462067 72.16459656 267.00862122 C72.16612549 268.41850751 72.16723931 269.82839431 72.16796875 271.23828125 C72.17118154 272.68076104 72.17454563 274.1232405 72.17805481 275.5657196 C72.18404858 278.59289301 72.18589453 281.62003787 72.18530273 284.6472168 C72.18520127 288.52092855 72.19883599 292.39445636 72.21607494 296.26812458 C72.22721152 299.24931168 72.22922141 302.23045461 72.22869301 305.21166039 C72.2298713 306.63936177 72.23428461 308.06706437 72.24202538 309.49474525 C72.25185512 311.49557753 72.24767527 313.49646368 72.24291992 315.49731445 C72.24434494 316.634897 72.24576996 317.77247955 72.24723816 318.9445343 C71.99831519 322.0208216 71.3066755 324.22219345 70 327 C69.67 327 69.34 327 69 327 C69 220.08 69 113.16 69 3 C46.23 3 23.46 3 0 3 C0 2.01 0 1.02 0 0 Z " fill="#001E01" transform="translate(560,188)"/>
<path d="M0 0 C0.99 0.33 1.98 0.66 3 1 C3.33 42.58 3.66 84.16 4 127 C4.495 126.505 4.495 126.505 5 126 C6.88716028 125.89936664 8.77812828 125.86918025 10.66796875 125.8671875 C11.86204346 125.86525391 13.05611816 125.86332031 14.28637695 125.86132812 C16.21743286 125.8680957 16.21743286 125.8680957 18.1875 125.875 C20.13885864 125.87790039 20.13885864 125.87790039 22.12963867 125.88085938 C33.4378779 125.93070896 44.71102635 126.34893664 56 127 C56 127.33 56 127.66 56 128 C97.58 128.495 97.58 128.495 140 129 C140 86.43 140 43.86 140 0 C140.33 0 140.66 0 141 0 C141 42.9 141 85.8 141 130 C94.47 130 47.94 130 0 130 C0 87.1 0 44.2 0 0 Z " fill="#0B370E" transform="translate(419,191)"/>
<path d="M0 0 C46.53 0 93.06 0 141 0 C141 45.21 141 90.42 141 137 C140.67 137 140.34 137 140 137 C140 92.12 140 47.24 140 1 C121.6540625 1.2165625 121.6540625 1.2165625 102.9375 1.4375 C99.08570068 1.48060303 95.23390137 1.52370605 91.26538086 1.56811523 C87.79138176 1.61140161 87.79138176 1.61140161 84.31739807 1.65589905 C82.77855895 1.6750311 81.23969691 1.69237394 79.70082092 1.70826721 C77.36028753 1.73279582 75.0198913 1.7631281 72.67944336 1.79467773 C71.3626207 1.81022202 70.04579803 1.8257663 68.68907166 1.84178162 C65.06268574 1.99731151 61.58733023 2.46654276 58 3 C56.34602679 3.08186545 54.68968856 3.12773157 53.03369141 3.12939453 C51.66659531 3.13412277 51.66659531 3.13412277 50.2718811 3.13894653 C49.30817596 3.1369223 48.34447083 3.13489807 47.3515625 3.1328125 C45.83361588 3.13424759 45.83361588 3.13424759 44.28500366 3.13571167 C42.15191587 3.1363898 40.01882597 3.13456119 37.88574219 3.13037109 C34.64253029 3.12502888 31.39945757 3.13032286 28.15625 3.13671875 C26.07552053 3.13605769 23.99479115 3.13477594 21.9140625 3.1328125 C20.95440582 3.13483673 19.99474915 3.13686096 19.00601196 3.13894653 C13.25951865 3.11920824 7.70053261 2.73416503 2 2 C2.0721875 3.29292969 2.144375 4.58585937 2.21875 5.91796875 C2.74294655 15.62448166 3.15968929 25.2766965 3 35 C2.67 35 2.34 35 2 35 C1.67 68.33 1.34 101.66 1 136 C0.67 136 0.34 136 0 136 C0 91.12 0 46.24 0 0 Z " fill="#134A19" transform="translate(419,380)"/>
<path d="M0 0 C1.03168304 -0.0033284 2.06336609 -0.0066568 3.12631226 -0.01008606 C5.31337033 -0.01514197 7.50043609 -0.0174948 9.6875 -0.01733398 C12.96367964 -0.01949189 16.23950617 -0.03758191 19.515625 -0.05664062 C35.99620557 -0.10241199 52.90479037 -0.06405515 68.8359375 4.66796875 C69.61001953 4.88066406 70.38410156 5.09335938 71.18164062 5.3125 C75.00103403 6.38127446 78.81213439 7.45428249 82.3984375 9.16796875 C82.7284375 9.82796875 83.0584375 10.48796875 83.3984375 11.16796875 C85.06121837 11.8371723 86.75543336 12.42917099 88.4609375 12.98046875 C93.47679279 14.72881518 98.29583099 16.71190481 102.3984375 20.16796875 C102.3984375 20.82796875 102.3984375 21.48796875 102.3984375 22.16796875 C103.0378125 22.45671875 103.6771875 22.74546875 104.3359375 23.04296875 C106.3984375 24.16796875 106.3984375 24.16796875 107.3984375 26.16796875 C106.9034375 25.87921875 106.4084375 25.59046875 105.8984375 25.29296875 C103.06910133 24.01976747 100.33476177 23.42793305 97.30078125 22.828125 C95.0132331 22.03429412 94.08514365 20.88023106 92.3984375 19.16796875 C90.13816405 17.96315385 90.13816405 17.96315385 87.7109375 16.98046875 C86.90269531 16.63628906 86.09445313 16.29210937 85.26171875 15.9375 C84.64683594 15.68355469 84.03195313 15.42960938 83.3984375 15.16796875 C83.3984375 14.50796875 83.3984375 13.84796875 83.3984375 13.16796875 C82.4290625 13.04421875 81.4596875 12.92046875 80.4609375 12.79296875 C79.4503125 12.58671875 78.4396875 12.38046875 77.3984375 12.16796875 C76.9034375 11.17796875 76.9034375 11.17796875 76.3984375 10.16796875 C74.53351348 9.77801773 74.53351348 9.77801773 72.3984375 9.66796875 C70.2109375 9.51171875 70.2109375 9.51171875 68.3984375 9.16796875 C67.9034375 8.17796875 67.9034375 8.17796875 67.3984375 7.16796875 C64.4940762 6.77050401 64.4940762 6.77050401 61.0234375 6.66796875 C56.66560062 6.47471656 52.62266746 6.04621015 48.34716797 5.17626953 C42.5810246 4.11156882 36.97152392 3.78227494 31.1171875 3.69140625 C30.07244766 3.67227173 29.02770782 3.65313721 27.9513092 3.63342285 C24.60022889 3.58454305 21.24982869 3.5592241 17.8984375 3.54296875 C16.76058807 3.53573792 15.62273865 3.52850708 14.45040894 3.52105713 C-3.97308511 3.47391202 -21.05492482 4.65405246 -37.74926758 13.27734375 C-39.93635511 14.32894456 -41.4413998 14.37330751 -43.8515625 14.29296875 C-45.7078125 14.23109375 -45.7078125 14.23109375 -47.6015625 14.16796875 C-47.9315625 13.50796875 -48.2615625 12.84796875 -48.6015625 12.16796875 C-41.62387438 7.33726159 -34.7483112 5.93565749 -26.52246094 4.51269531 C-25.67458008 4.36413086 -24.82669922 4.21556641 -23.953125 4.0625 C-23.18822754 3.93721924 -22.42333008 3.81193848 -21.63525391 3.68286133 C-19.30993887 3.2144266 -19.30993887 3.2144266 -16.6015625 1.16796875 C-11.13890846 -0.161513 -5.5879145 0.00635755 0 0 Z " fill="#55BB65" transform="translate(151.6015625,185.83203125)"/>
<path d="M0 0 C0.33 0 0.66 0 1 0 C1 42.24 1 84.48 1 128 C-40.91 128 -82.82 128 -126 128 C-126 127.67 -126 127.34 -126 127 C-97.10821585 126.17094068 -68.21334824 125.77739351 -39.3125 125.4375 C-37.89690166 125.4208473 -37.89690166 125.4208473 -36.45270538 125.40385818 C-24.63518184 125.26521392 -12.81761373 125.13072285 -1 125 C-1.00092179 124.36185899 -1.00184359 123.72371798 -1.00279331 123.06623936 C-1.02484861 107.56050671 -1.04141159 92.0547795 -1.05181217 76.54903507 C-1.05697511 69.05066936 -1.06401776 61.55231409 -1.07543945 54.05395508 C-1.08538637 47.52069496 -1.09185344 40.98744241 -1.09408849 34.45417494 C-1.09539559 30.99278193 -1.09848136 27.53141058 -1.10573006 24.07002449 C-1.11374407 20.21212473 -1.11399113 16.35424643 -1.11352539 12.49633789 C-1.11712067 11.34044159 -1.12071594 10.18454529 -1.12442017 8.99362183 C-1.1230455 7.94889206 -1.12167084 6.90416229 -1.12025452 5.82777405 C-1.12117631 4.9142772 -1.1220981 4.00078035 -1.12304783 3.05960178 C-1 1 -1 1 0 0 Z " fill="#001700" transform="translate(558,192)"/>
<path d="M0 0 C22.44 0 44.88 0 68 0 C68 37.95 68 75.9 68 115 C67.67 115 67.34 115 67 115 C66.9845388 113.75808144 66.9845388 113.75808144 66.96876526 112.49107361 C66.83721448 101.97316474 66.70158474 91.45531196 66.5625 80.9375 C66.55147877 80.10384541 66.54045753 79.27019081 66.52910233 78.41127396 C66.19529535 53.26715799 65.73621234 28.13639284 65 3 C44.54 3 24.08 3 3 3 C2.34 43.92 1.68 84.84 1 127 C0.67 127 0.34 127 0 127 C0 85.09 0 43.18 0 0 Z " fill="#66C073" transform="translate(560,191)"/>
<path d="M0 0 C24.75 0 49.5 0 75 0 C75 43.89 75 87.78 75 133 C74.34 133.33 73.68 133.66 73 134 C72.97666282 117.21503252 72.95901679 100.43007008 72.94818783 83.6450901 C72.94302662 75.85192956 72.93598723 68.05877908 72.92456055 60.265625 C72.91460839 53.47489267 72.9081453 46.68416763 72.90591151 39.89342821 C72.90460531 36.29618768 72.90152516 32.69896802 72.89426994 29.10173416 C72.88624552 25.09076249 72.88600921 21.07982732 72.88647461 17.06884766 C72.88287933 15.86979294 72.87928406 14.67073822 72.87557983 13.43534851 C72.8769545 12.34717331 72.87832916 11.25899811 72.87974548 10.1378479 C72.87882369 9.18840113 72.8779019 8.23895435 72.87695217 7.26073647 C73 5 73 5 74 3 C73.34 3 72.68 3 72 3 C72 2.34 72 1.68 72 1 C71.47792969 1.15339844 70.95585938 1.30679687 70.41796875 1.46484375 C58.85022656 4.02507102 46.1752511 3.1049673 34.375 3.125 C33.33178085 3.12888229 33.33178085 3.12888229 32.26748657 3.13284302 C24.72355512 3.15492368 17.19710232 3.04503285 9.6640625 2.6171875 C8.45443848 2.54870605 7.24481445 2.48022461 5.99853516 2.40966797 C3 2 3 2 0 0 Z " fill="#001800" transform="translate(484,381)"/>
<path d="M0 0 C5.46093129 1.32300913 9.70609576 3.36505102 14.5 6.25 C29.26164726 14.82322311 45.12509016 20.17525574 61.953125 22.92211914 C67.23530024 23.80187704 72.00239519 25.1043568 77 27 C80.06468097 28.02156032 82.90236997 28.3108169 86.10595703 28.59570312 C93.29197755 29.24644616 99.75511828 30.11668397 106.4453125 33 C109.12721838 34.12326703 109.12721838 34.12326703 112.6015625 34.81640625 C118.11561718 36.14096825 123.12209691 38.5620743 128.25 40.9375 C129.2296875 41.38029297 130.209375 41.82308594 131.21875 42.27929688 C135.47843474 44.23165238 139.32012064 46.0659704 143 49 C142.67 49.99 142.34 50.98 142 52 C141.18595703 51.47599609 141.18595703 51.47599609 140.35546875 50.94140625 C139.64003906 50.48636719 138.92460937 50.03132813 138.1875 49.5625 C137.12595703 48.88380859 137.12595703 48.88380859 136.04296875 48.19140625 C133.91865448 46.85913661 133.91865448 46.85913661 131 46 C131 45.34 131 44.68 131 44 C129.91332031 43.70996094 129.91332031 43.70996094 128.8046875 43.4140625 C120.60377358 41.20528302 120.60377358 41.20528302 116.875 39.9375 C113.87623657 38.95964236 110.8638272 38.28261647 107.78125 37.625 C105.0474813 37.01066996 102.33474782 36.33085397 99.62060547 35.63549805 C92.77608392 33.8845934 85.91096594 32.28035176 79 30.8125 C78.22350098 30.64572754 77.44700195 30.47895508 76.64697266 30.30712891 C73.01741175 29.54814271 69.43789856 28.90796066 65.75 28.51171875 C62.39708242 28.05418521 60.06590616 27.32539173 57 26 C54.90089947 25.45911028 52.79590742 24.94089139 50.6875 24.4375 C9.91474448 14.03974373 9.91474448 14.03974373 1.640625 2.79296875 C1.09921875 1.87128906 0.5578125 0.94960938 0 0 Z " fill="#52B962" transform="translate(78,349)"/>
<path d="M0 0 C-1.35360802 3.18097884 -2.64005192 4.71446091 -5.5 6.625 C-10.0821256 9.88600179 -13.83454782 13.76242287 -17.703125 17.828125 C-20 20 -20 20 -22.203125 21.08203125 C-25.2352942 22.63107421 -25.72291245 25.96691708 -27 29 C-27.64839844 29.4640625 -28.29679687 29.928125 -28.96484375 30.40625 C-31.50508781 32.39553901 -32.03260631 34.03523673 -33.0625 37.0625 C-34.67850349 41.78566899 -34.67850349 41.78566899 -38 44 C-38.99850773 47.29015894 -38.99850773 47.29015894 -39.625 51.125 C-39.86476563 52.40632813 -40.10453125 53.68765625 -40.3515625 55.0078125 C-40.57095825 56.33800972 -40.78718858 57.66873352 -41 59 C-41.28810547 60.72863281 -41.28810547 60.72863281 -41.58203125 62.4921875 C-42.39367952 69.27524804 -42.10351629 76.1789132 -42.0625 83 C-42.05747576 84.45702971 -42.05291449 85.9140611 -42.04882812 87.37109375 C-42.03789388 90.9140977 -42.02068 94.45703797 -42 98 C-42.99 98 -43.98 98 -45 98 C-47.60160234 94.09759649 -47.26043064 90.83286586 -47.1875 86.3125 C-47.1781543 85.46324951 -47.16880859 84.61399902 -47.15917969 83.73901367 C-47.1215858 81.15877132 -47.06388914 78.57971285 -47 76 C-46.98598145 75.27425781 -46.97196289 74.54851562 -46.95751953 73.80078125 C-46.77886446 66.06520101 -45.93998588 58.69517377 -44.125 51.1875 C-43.96354492 50.51114502 -43.80208984 49.83479004 -43.63574219 49.13793945 C-42.68719984 45.54038538 -41.72429668 43.48391756 -39 41 C-38.11248454 38.83760919 -38.11248454 38.83760919 -37.5 36.5 C-36.5478898 33.09960644 -35.58763203 31.38599837 -33 29 C-32.484375 28.113125 -31.96875 27.22625 -31.4375 26.3125 C-30.963125 25.549375 -30.48875 24.78625 -30 24 C-29.34 24 -28.68 24 -28 24 C-27.76152344 23.26394531 -27.52304688 22.52789062 -27.27734375 21.76953125 C-24.07358577 14.8231569 -7.92856008 0 0 0 Z " fill="#51B260" transform="translate(92,205)"/>
<path d="M0 0 C-4.56359634 4.90164052 -8.35021455 7.15706945 -15 8 C-17.63589958 8.06656312 -20.24148596 8.09567411 -22.875 8.0625 C-23.56335938 8.05798828 -24.25171875 8.05347656 -24.9609375 8.04882812 C-26.64066335 8.03716336 -28.32034375 8.01923271 -30 8 C-30 8.66 -30 9.32 -30 10 C-43.665466 12.93186361 -57.03142975 13.21701031 -70.9375 12.875 C-71.77330597 12.85857452 -72.60911194 12.84214905 -73.47024536 12.82522583 C-84.00507949 12.59914868 -93.76243304 11.67666563 -104 9 C-104 8.67 -104 8.34 -104 8 C-101.2915983 7.97285566 -98.58347279 7.95309154 -95.875 7.9375 C-94.73417969 7.92493164 -94.73417969 7.92493164 -93.5703125 7.91210938 C-92.82265625 7.90888672 -92.075 7.90566406 -91.3046875 7.90234375 C-90.2835083 7.89448853 -90.2835083 7.89448853 -89.24169922 7.88647461 C-87 8 -87 8 -84.11303711 8.49560547 C-59.60539768 12.4664927 -31.58129643 7.82635113 -7.97265625 0.8515625 C-5.14340607 0.04108085 -2.92151002 -0.17706121 0 0 Z " fill="#042305" transform="translate(237,512)"/>
<path d="M0 0 C3.3 0 6.6 0 10 0 C10 0.66 10 1.32 10 2 C12.47767861 2.61089197 14.95655675 3.21508672 17.4375 3.8125 C18.57928711 4.08815796 18.57928711 4.08815796 19.74414062 4.36938477 C24.4187816 5.47130558 29.07648017 6.3696626 33.82250977 7.1003418 C40.7288998 8.16971332 47.55316591 9.24850644 53 14 C53.495 15.485 53.495 15.485 54 17 C56.44894957 18.76647912 56.44894957 18.76647912 59.375 20.4375 C63.06548699 22.6138162 65.65935607 24.37757488 68 28 C65.03824877 27.38722388 63.61941217 26.74627478 61 25 C61 24.34 61 23.68 61 23 C60.49855469 22.89429688 59.99710937 22.78859375 59.48046875 22.6796875 C56.00155683 21.72641085 52.66879502 20.43430634 49.3125 19.125 C48.62349609 18.86847656 47.93449219 18.61195313 47.22460938 18.34765625 C45.44663516 17.6518512 43.71794468 16.83306847 42 16 C41.505 14.515 41.505 14.515 41 13 C39.72125 12.896875 38.4425 12.79375 37.125 12.6875 C31.86329406 12.11866692 27.00852854 10.6625387 22 9 C22 8.34 22 7.68 22 7 C21.16597656 6.90203125 20.33195312 6.8040625 19.47265625 6.703125 C12.35984326 5.75800895 6.34865123 4.37938541 0 1 C0 0.67 0 0.34 0 0 Z " fill="#53B762" transform="translate(202,326)"/>
<path d="M0 0 C2.57925061 0.08340618 5.15837343 0.14537724 7.73828125 0.20458984 C18.13220981 0.47960083 28.29184608 1.32086762 38.58203125 2.83349609 C39.07703125 4.31849609 39.07703125 4.31849609 39.58203125 5.83349609 C37.99880931 5.8615453 36.41542425 5.88034108 34.83203125 5.89599609 C33.50945312 5.91339844 33.50945312 5.91339844 32.16015625 5.93115234 C29.12017047 5.8481833 26.1674277 5.61988291 23.14257812 5.33349609 C16.76107153 4.79297956 10.43624483 4.70512128 4.03515625 4.73583984 C2.3293338 4.73796227 2.3293338 4.73796227 0.58905029 4.74012756 C-2.99665098 4.74566667 -6.58228677 4.75820732 -10.16796875 4.77099609 C-12.61848867 4.77601898 -15.06900959 4.7805805 -17.51953125 4.78466797 C-23.48569893 4.79561606 -29.45182916 4.81229217 -35.41796875 4.83349609 C-33.41796875 1.83349609 -33.41796875 1.83349609 -30.42578125 1.09423828 C-20.22300621 -0.12465461 -10.26599464 -0.33687729 0 0 Z " fill="#042405" transform="translate(173.41796875,182.16650390625)"/>
<path d="M0 0 C4.58236312 -0.12570073 8.45094452 0.21440363 12.875 1.375 C36.25335045 6.5431025 61.16834991 5.55038071 85 6 C76.52539947 10.89196378 64.08704099 9.15529469 54.625 9.125 C52.77841797 9.13080078 52.77841797 9.13080078 50.89453125 9.13671875 C49.70472656 9.13542969 48.51492187 9.13414062 47.2890625 9.1328125 C46.22381348 9.13168457 45.15856445 9.13055664 44.06103516 9.12939453 C40.96251898 8.99841562 38.05129972 8.53667114 35 8 C33.52929511 7.88831879 32.0561182 7.80403837 30.58203125 7.75390625 C29.41317383 7.70459961 29.41317383 7.70459961 28.22070312 7.65429688 C26.60367547 7.59265835 24.98647426 7.53542801 23.36914062 7.48242188 C22.59376953 7.44826172 21.81839844 7.41410156 21.01953125 7.37890625 C20.31932861 7.3538501 19.61912598 7.32879395 18.89770508 7.30297852 C17 7 17 7 14 5 C11.61980421 4.24077573 9.22128138 3.53796735 6.8125 2.875 C6.15830078 2.69324219 5.50410156 2.51148438 4.83007812 2.32421875 C3.22137657 1.87800956 1.61085869 1.43835785 0 1 C0 0.67 0 0.34 0 0 Z " fill="#4BAE5B" transform="translate(115,513)"/>
<path d="M0 0 C4.95 0.99 9.9 1.98 15 3 C15 3.33 15 3.66 15 4 C19.66242811 4.91121633 24.19009415 5.16050821 28.92578125 5.16796875 C30.04632149 5.17296135 30.04632149 5.17296135 31.1894989 5.17805481 C32.7636148 5.18309515 34.33774128 5.18546403 35.91186523 5.18530273 C38.29494229 5.18748393 40.67755183 5.20565569 43.06054688 5.22460938 C50.64009652 5.25142716 57.63394605 4.98193391 65 3 C68.0625 3.375 68.0625 3.375 70 4 C69 6 69 6 65.875 7.0859375 C58.98984534 8.71005664 52.04150619 8.79170565 45 9 C43.8042334 9.03931641 42.6084668 9.07863281 41.37646484 9.11914062 C37.99885782 9.21746494 34.62340654 9.29119664 31.24487305 9.34002686 C29.23517689 9.37418954 27.2259303 9.43216823 25.21679688 9.49072266 C16.40899853 9.56534614 9.83369962 8.04809743 2 4 C2 3.34 2 2.68 2 2 C1.34 2 0.68 2 0 2 C0 1.34 0 0.68 0 0 Z " fill="#4DAE5D" transform="translate(135,455)"/>
<path d="M0 0 C0.33 0 0.66 0 1 0 C2.76419152 12.9371998 3.21313056 25.52704023 2.9765625 38.5703125 C2.95030719 40.47271423 2.92504775 42.37512994 2.90072632 44.27755737 C2.83493729 49.21932049 2.75587109 54.16077956 2.67376709 59.10229492 C2.59199156 64.17094494 2.52314841 69.23977017 2.453125 74.30859375 C2.31453769 84.20593877 2.16188349 94.10301047 2 104 C1.34 104 0.68 104 0 104 C0 69.68 0 35.36 0 0 Z " fill="#011900" transform="translate(420,410)"/>
<path d="M0 0 C8.34834709 2.60885847 13.75473251 8.03124315 17.875 15.56640625 C20.97021224 22.26195217 20.37128356 29.88415018 19 37 C17.96427917 39.46171327 16.78808185 41.61987196 15.3515625 43.8671875 C13.86935439 46.06154285 13.86935439 46.06154285 12.80859375 48.984375 C10.3832784 53.02831334 7.58881742 54.35628935 3.4375 56.375 C2.75236328 56.72949219 2.06722656 57.08398438 1.36132812 57.44921875 C-3.65652148 60 -3.65652148 60 -6 60 C-5.4375 58.1875 -5.4375 58.1875 -4 56 C-2.27639473 55.25202035 -0.54951524 54.50918771 1.203125 53.83203125 C4.12086411 52.48099118 5.88555647 50.38552604 8 48 C8.51820313 47.50757813 9.03640625 47.01515625 9.5703125 46.5078125 C14.45551077 41.57541424 15.43400334 36.79195996 16 30 C16.14115234 28.30617188 16.14115234 28.30617188 16.28515625 26.578125 C16.72404214 19.73561403 16.72404214 19.73561403 13.5625 13.9375 C12.716875 13.298125 11.87125 12.65875 11 12 C10.855625 11.278125 10.71125 10.55625 10.5625 9.8125 C10.376875 9.214375 10.19125 8.61625 10 8 C8.6078125 7.5359375 8.6078125 7.5359375 7.1875 7.0625 C3.38807168 5.79602389 2.18764873 4.2814731 0 1 C0 0.67 0 0.34 0 0 Z " fill="#062507" transform="translate(210,395)"/>
<path d="M0 0 C0.59723877 0.24121582 1.19447754 0.48243164 1.80981445 0.73095703 C12.23423158 4.92304982 22.65329621 9.06087721 33.375 12.4375 C34.11532471 12.67162598 34.85564941 12.90575195 35.6184082 13.14697266 C40.11714568 14.52814163 44.62409996 15.62172599 49.23681641 16.55493164 C51 17 51 17 52 18 C53.33630117 18.29430772 54.68419222 18.53661833 56.03515625 18.75390625 C56.84404297 18.88603516 57.65292969 19.01816406 58.48632812 19.15429688 C59.33646484 19.28900391 60.18660156 19.42371094 61.0625 19.5625 C61.91650391 19.70107422 62.77050781 19.83964844 63.65039062 19.98242188 C65.76634451 20.32523005 67.88310118 20.66307616 70 21 C70 21.33 70 21.66 70 22 C50.46808511 22.57446809 50.46808511 22.57446809 42 19 C42 18.34 42 17.68 42 17 C41.319375 16.91363281 40.63875 16.82726562 39.9375 16.73828125 C27.1201888 14.8804529 12.85382743 11.34229503 2 4 C0.85888672 1.90454102 0.85888672 1.90454102 0 0 Z " fill="#082E0A" transform="translate(88,358)"/>
<path d="M0 0 C0.33 0 0.66 0 1 0 C1.05906119 3.60409539 1.09394639 7.20806309 1.125 10.8125 C1.14175781 11.81732422 1.15851563 12.82214844 1.17578125 13.85742188 C1.23704376 23.38374281 0.32710146 32.14778304 -4 40.734375 C-5.12704252 43.12119596 -5.12704252 43.12119596 -5.8515625 46.30859375 C-7.15318086 50.49236706 -8.98606211 53.67834776 -11.375 57.3125 C-11.76171875 57.93189453 -12.1484375 58.55128906 -12.546875 59.18945312 C-14.64531259 62.43217295 -16.26728213 64.73019415 -20 66 C-19.41800054 62.62440315 -18.37247717 61.37247717 -16 59 C-14.31401984 55.81537081 -13.93018847 53.15669408 -13.75 49.625 C-13.33789012 45.00021133 -11.65790096 43.0733372 -8.49609375 39.828125 C-5.89771354 36.65308078 -5.05122064 32.90237302 -4 29 C-3.67 28.01 -3.34 27.02 -3 26 C-2.34 26 -1.68 26 -1 26 C-0.67 17.42 -0.34 8.84 0 0 Z " fill="#4DC863" transform="translate(300,415)"/>
<path d="M0 0 C-1.35360802 3.18097884 -2.64005192 4.71446091 -5.5 6.625 C-10.0821256 9.88600179 -13.83454782 13.76242287 -17.703125 17.828125 C-20 20 -20 20 -22.203125 21.08203125 C-25.2352942 22.63107421 -25.72291245 25.96691708 -27 29 C-27.97453125 29.69609375 -27.97453125 29.69609375 -28.96875 30.40625 C-32.10599449 32.86778029 -32.66105585 36.03204925 -33.875 39.72265625 C-35.19996145 42.40478307 -36.24311476 42.98339857 -39 44 C-38.68950274 42.56206608 -38.3765224 41.1246682 -38.0625 39.6875 C-37.88847656 38.88699219 -37.71445312 38.08648437 -37.53515625 37.26171875 C-36.63967302 33.47715823 -35.68992858 31.68992858 -33 29 C-32.484375 28.113125 -31.96875 27.22625 -31.4375 26.3125 C-30.963125 25.549375 -30.48875 24.78625 -30 24 C-29.34 24 -28.68 24 -28 24 C-27.76152344 23.26394531 -27.52304688 22.52789062 -27.27734375 21.76953125 C-24.07358577 14.8231569 -7.92856008 0 0 0 Z " fill="#4CBD5E" transform="translate(92,205)"/>
<path d="M0 0 C9.06988259 5.64231068 16.06382571 14.18421812 22 23 C22.60972656 23.89203125 23.21945312 24.7840625 23.84765625 25.703125 C28.49494559 32.99373908 30.32058744 39.40335134 31 48 C31.66 48 32.32 48 33 48 C33 49.98 33 51.96 33 54 C29.35257209 51.71372855 28.145964 50.57892895 27.07421875 46.328125 C26.92270445 44.97108387 26.79429313 43.61129073 26.6875 42.25 C26.61466797 41.55261719 26.54183594 40.85523438 26.46679688 40.13671875 C26.29108191 38.42642647 26.14277968 36.71335618 26 35 C24.515 34.505 24.515 34.505 23 34 C21.00603743 31.33916031 19 28.38757675 19 25 C17.68 24.34 16.36 23.68 15 23 C15 21.02 15 19.04 15 17 C14.01 17 13.02 17 12 17 C10.5703125 15.171875 10.5703125 15.171875 9.125 12.75 C6.78393039 9.01946763 4.49811542 6.69854618 1 4 C0.1875 1.75 0.1875 1.75 0 0 Z " fill="#52B761" transform="translate(262,214)"/>
<path d="M0 0 C0.66 0.33 1.32 0.66 2 1 C-0.35638448 3.49103502 -2.43695747 5.68238627 -5.4375 7.375 C-8.51346014 9.32560887 -10.40885105 11.6511752 -12.66796875 14.4765625 C-14 16 -14 16 -16 17 C-16.65555119 19.52733235 -16.65555119 19.52733235 -17 22 C-17.66 22 -18.32 22 -19 22 C-19 27.94 -19 33.88 -19 40 C-18.01 40.33 -17.02 40.66 -16 41 C-15.67 42.98 -15.34 44.96 -15 47 C-14.34 47 -13.68 47 -13 47 C-13.33 47.99 -13.66 48.98 -14 50 C-18.80971141 45.70561481 -21.66737389 41.95704611 -22.390625 35.52734375 C-22.60818505 27.76511204 -22.19691905 21.60018274 -18 15 C-17.39414063 14.03707031 -16.78828125 13.07414062 -16.1640625 12.08203125 C-12.51167836 6.67342409 -10.48278019 3.70414547 -4 2 C-3.2575 1.608125 -2.515 1.21625 -1.75 0.8125 C-1.1725 0.544375 -0.595 0.27625 0 0 Z " fill="#062908" transform="translate(139,251)"/>
<path d="M0 0 C0 0.66 0 1.32 0 2 C0.66 2 1.32 2 2 2 C2 2.66 2 3.32 2 4 C-3.65979381 3.37113402 -3.65979381 3.37113402 -5.375 1.5 C-7.67600527 -0.62400486 -9.97981864 -0.41907032 -12.9921875 -0.69140625 C-15.82668127 -1.12705802 -17.75980046 -2.24984411 -20 -4 C-20 -4.66 -20 -5.32 -20 -6 C-20.53625 -5.814375 -21.0725 -5.62875 -21.625 -5.4375 C-24 -5 -24 -5 -26.66064453 -5.46655273 C-30.40042437 -6.06396602 -34.03097217 -6.12584868 -37.8046875 -6.09765625 C-38.8906572 -6.09553383 -38.8906572 -6.09553383 -39.99856567 -6.09336853 C-42.29075407 -6.08781075 -44.58284157 -6.07526633 -46.875 -6.0625 C-48.43749858 -6.05747953 -49.99999871 -6.05291759 -51.5625 -6.04882812 C-55.37503835 -6.03785519 -59.18750212 -6.0206201 -63 -6 C-63 -6.33 -63 -6.66 -63 -7 C-42.8927209 -10.84302945 -17.66648142 -12.12591825 0 0 Z " fill="#072C08" transform="translate(212,255)"/>
<path d="M0 0 C22.44 0 44.88 0 68 0 C64.62078441 3.37921559 63.49990875 3.34736833 58.92201233 3.36553955 C57.69411232 3.34701935 57.69411232 3.34701935 56.44140625 3.328125 C55.15386696 3.32531525 55.15386696 3.32531525 53.84031677 3.32244873 C52.01191354 3.31571569 50.18352501 3.30177648 48.35522461 3.28125 C45.63185375 3.25077605 42.90906947 3.24033946 40.18554688 3.234375 C31.08620855 3.19505962 21.99377069 2.99293868 12.90234375 2.609375 C12.06538467 2.579505 11.2284256 2.54963501 10.36610413 2.51885986 C9.58778732 2.48137634 8.80947052 2.44389282 8.00756836 2.40527344 C7.32786484 2.37544373 6.64816132 2.34561401 5.94786072 2.31488037 C4 2 4 2 0 0 Z " fill="#001E00" transform="translate(351,517)"/>
<path d="M0 0 C0.66 0 1.32 0 2 0 C2 0.66 2 1.32 2 2 C2.87978516 2.40798828 2.87978516 2.40798828 3.77734375 2.82421875 C9.17932914 5.68185953 13.10416685 9.64270868 16 15 C16.46535156 15.43828125 16.93070312 15.8765625 17.41015625 16.328125 C19.37165267 18.39082885 20.4359169 20.5104732 21.6875 23.0625 C22.12449219 23.94035156 22.56148438 24.81820313 23.01171875 25.72265625 C24 28 24 28 24 30 C24.66 30 25.32 30 26 30 C30.59225513 48.82004556 30.59225513 48.82004556 30 58 C29.67 58 29.34 58 29 58 C28.76925781 57.00742187 28.53851563 56.01484375 28.30078125 54.9921875 C24.52462362 38.24048092 24.52462362 38.24048092 17 23 C16.34 22.67 15.68 22.34 15 22 C14.27129528 19.68529088 13.60760482 17.3494053 13 15 C12.35580979 11.92782918 12.35580979 11.92782918 10.203125 11.02734375 C9.47609375 10.68832031 8.7490625 10.34929687 8 10 C6.54746228 8.89999425 5.1306952 7.75143198 3.75 6.5625 C3.04359375 5.96566406 2.3371875 5.36882812 1.609375 4.75390625 C0 3 0 3 0 0 Z " fill="#51B361" transform="translate(270,354)"/>
<path d="M0 0 C2.61078105 0.95728639 3.78214734 1.62162432 5.1875 4.0625 C6.06597131 7.23851167 6.41776296 10.24424064 6.65625 13.5234375 C6.95302496 16.16116911 6.95302496 16.16116911 8.01171875 19.23046875 C9.15303666 23.58371692 9.33137631 27.46381508 9.3125 31.9375 C9.32861328 32.69740234 9.34472656 33.45730469 9.36132812 34.24023438 C9.36606826 39.79092752 8.19709 43.90437438 6 49 C5.67 49 5.34 49 5 49 C4.98541748 48.30140869 4.97083496 47.60281738 4.95581055 46.88305664 C4.63215657 32.95678625 3.8912656 19.63923122 1 6 C0.65640726 4.00173697 0.31938135 2.00227537 0 0 Z " fill="#062B08" transform="translate(296,387)"/>
<path d="M0 0 C0.66 0.66 1.32 1.32 2 2 C1.175 2.42667969 0.35 2.85335937 -0.5 3.29296875 C-7.6754785 7.17701682 -14.20401138 11.43800179 -20.5625 16.5625 C-21.22830078 17.09190186 -21.89410156 17.62130371 -22.58007812 18.16674805 C-25.79981857 20.82303391 -28.415338 23.38537731 -30.77734375 26.83984375 C-33 30 -33 30 -36 31 C-36 30.01 -36 29.02 -36 28 C-35.34 28 -34.68 28 -34 28 C-33.979375 26.9275 -33.95875 25.855 -33.9375 24.75 C-33 21 -33 21 -31.48046875 19.78515625 C-30.23649286 19.13305099 -28.97793903 18.50807824 -27.70703125 17.91015625 C-25.77982215 17.03739594 -25.77982215 17.03739594 -24.3125 14.75 C-23.879375 14.1725 -23.44625 13.595 -23 13 C-21.68 13 -20.36 13 -19 13 C-18.814375 12.278125 -18.62875 11.55625 -18.4375 10.8125 C-16.53621016 7.0925851 -13.8398644 4.70120575 -10 3 C-7.7734375 3.3671875 -7.7734375 3.3671875 -6 4 C-5.67 3.01 -5.34 2.02 -5 1 C-2.625 0.375 -2.625 0.375 0 0 Z " fill="#062607" transform="translate(97,199)"/>
<path d="M0 0 C2.19282995 2.71298961 4.34772141 5.4474579 6.4453125 8.234375 C13.41009677 17.41605296 20.96411244 24.81599046 30 32 C29.67 32.66 29.34 33.32 29 34 C17.77069239 28.36598532 17.77069239 28.36598532 14 23 C13.154375 22.54625 12.30875 22.0925 11.4375 21.625 C8.07303344 19.38202229 7.43689884 16.69488274 6 13 C5.34 12.67 4.68 12.34 4 12 C3.66666667 10.66666667 3.33333333 9.33333333 3 8 C2.34 7.67 1.68 7.34 1 7 C0.59270772 4.67843403 0.25561323 2.3431213 0 0 Z " fill="#052A08" transform="translate(52,321)"/>
<path d="M0 0 C0 0.33 0 0.66 0 1 C-1.10903687 1.05945801 -1.10903687 1.05945801 -2.24047852 1.12011719 C-19.53373075 2.09408176 -35.23511559 3.25584626 -51 11 C-50.2578125 7.1953125 -50.2578125 7.1953125 -47.9375 5.4375 C-32.25255991 -2.23810898 -17.00223881 -1.31690923 0 0 Z " fill="#4DAA5B" transform="translate(181,245)"/>
<path d="M0 0 C-6.56976504 2.90585761 -11.5393818 4.15314335 -18.80078125 4.1328125 C-19.55538132 4.13376923 -20.30998138 4.13472595 -21.08744812 4.13571167 C-22.68191613 4.136391 -24.27638694 4.13455392 -25.87084961 4.13037109 C-28.29352143 4.12504175 -30.71600597 4.13031284 -33.13867188 4.13671875 C-34.69270874 4.13605749 -36.24674549 4.13477533 -37.80078125 4.1328125 C-38.51768631 4.13483673 -39.23459137 4.13686096 -39.97322083 4.13894653 C-44.4254114 4.11852708 -48.62078236 3.720744 -53 3 C-51 1 -51 1 -48.8359375 0.8046875 C-47.61777344 0.83949219 -47.61777344 0.83949219 -46.375 0.875 C-45.14910156 0.90207031 -45.14910156 0.90207031 -43.8984375 0.9296875 C-42.95871094 0.96449219 -42.95871094 0.96449219 -42 1 C-42 1.66 -42 2.32 -42 3 C-41.34 2.67 -40.68 2.34 -40 2 C-31.75983781 0.7470859 -23.35406105 0.67871474 -15.0390625 0.39453125 C-14.059375 0.35714844 -13.0796875 0.31976563 -12.0703125 0.28125 C-11.19133301 0.25095703 -10.31235352 0.22066406 -9.40673828 0.18945312 C-7.02151938 0.07689033 -7.02151938 0.07689033 -4.87060547 -0.58007812 C-3 -1 -3 -1 0 0 Z " fill="#042205" transform="translate(202,457)"/>
<path d="M0 0 C-4.56359634 4.90164052 -8.35021455 7.15706945 -15 8 C-17.63589958 8.06656312 -20.24148596 8.09567411 -22.875 8.0625 C-23.90753906 8.05573242 -23.90753906 8.05573242 -24.9609375 8.04882812 C-26.64066335 8.03716336 -28.32034375 8.01923271 -30 8 C-30 8.66 -30 9.32 -30 10 C-32.64 9.67 -35.28 9.34 -38 9 C-35.55688078 6.55688078 -34.16066707 6.43972724 -30.80078125 5.78125 C-29.75599609 5.57113281 -28.71121094 5.36101563 -27.63476562 5.14453125 C-26.53841797 4.93183594 -25.44207031 4.71914063 -24.3125 4.5 C-16.05309622 2.93045258 -16.05309622 2.93045258 -7.9140625 0.8515625 C-5.10752795 0.03142238 -2.90300411 -0.17593964 0 0 Z " fill="#0C340E" transform="translate(237,512)"/>
<path d="M0 0 C4.00866922 7.73100493 4 11.3758863 4 21 C-18.77 21 -41.54 21 -65 21 C-65 18.36 -65 15.72 -65 13 C-63 16 -63 16 -62 20 C-40.88 20 -19.76 20 2 20 C1.34 15.05 0.68 10.1 0 5 C0 3.35 0 1.7 0 0 Z " fill="#60BA6F" transform="translate(293,266)"/>
<path d="M0 0 C5.54074074 1.76296296 5.54074074 1.76296296 7.9375 3 C12.45938358 5.1924284 17.61339495 6.16623166 22.4609375 7.4375 C23.42644531 7.69273437 24.39195313 7.94796875 25.38671875 8.2109375 C27.40082442 8.74276671 29.41649824 9.26868793 31.43359375 9.7890625 C32.39136719 10.04429687 33.34914062 10.29953125 34.3359375 10.5625 C35.20782715 10.79066406 36.0797168 11.01882813 36.97802734 11.25390625 C39 12 39 12 40 14 C38.06257659 14.02703381 36.12504521 14.04641125 34.1875 14.0625 C33.10855469 14.07410156 32.02960938 14.08570313 30.91796875 14.09765625 C28 14 28 14 25 13 C25 12.34 25 11.68 25 11 C23.7625 10.938125 22.525 10.87625 21.25 10.8125 C14.15707762 10.01440572 6.4494302 7.77845813 1.64453125 2.328125 C1.10183594 1.55984375 0.55914062 0.7915625 0 0 Z " fill="#072A09" transform="translate(90,505)"/>
<path d="M0 0 C3.3 0 6.6 0 10 0 C10 0.66 10 1.32 10 2 C11.61455078 2.36351562 11.61455078 2.36351562 13.26171875 2.734375 C33.0875047 7.25804353 33.0875047 7.25804353 40 10 C40.495 10.99 40.495 10.99 41 12 C34.03672362 12.33693273 28.56654456 11.3030887 22 9 C22 8.34 22 7.68 22 7 C21.16597656 6.90203125 20.33195312 6.8040625 19.47265625 6.703125 C12.35984326 5.75800895 6.34865123 4.37938541 0 1 C0 0.67 0 0.34 0 0 Z " fill="#51B460" transform="translate(202,326)"/>
<path d="M0 0 C0.66 0.33 1.32 0.66 2 1 C0.27782558 4.44434883 -3.07293353 6.57368388 -6 9 C-6.84433594 9.70898438 -7.68867188 10.41796875 -8.55859375 11.1484375 C-25.85795928 25.52776828 -25.85795928 25.52776828 -36 27 C-34.6070847 23.55217189 -33.33138583 22.30486721 -30 20.703125 C-29.19965332 20.30569092 -28.39930664 19.90825684 -27.57470703 19.4987793 C-26.30022705 18.88063354 -26.30022705 18.88063354 -25 18.25 C-15.35718799 13.38349198 -7.42457613 7.91954787 0 0 Z " fill="#52B462" transform="translate(277,482)"/>
<path d="M0 0 C0.33 0 0.66 0 1 0 C1.23828125 2.265625 1.23828125 2.265625 1 5 C-0.64453125 6.984375 -0.64453125 6.984375 -2.8125 8.75 C-3.52019531 9.34296875 -4.22789062 9.9359375 -4.95703125 10.546875 C-7 12 -7 12 -10 13 C-10.66886779 14.3322305 -11.33531084 15.66567975 -12 17 C-15.33560415 19.79807854 -18.64459304 21.85881177 -23 22.3125 C-23.66 22.209375 -24.32 22.10625 -25 22 C-21.46463047 18.30691882 -17.73630018 15.16813285 -13.625 12.125 C-8.67253231 8.40156085 -4.29129328 4.48635207 0 0 Z " fill="#0A310D" transform="translate(277,484)"/>
<path d="M0 0 C-3.50646546 2.33764364 -7.06986034 3.37282753 -11.0625 4.5625 C-16.13825678 6.00072134 -16.13825678 6.00072134 -21 8 C-23.6723621 8.13415472 -26.32250488 8.04318541 -29 8 C-29.33 7.34 -29.66 6.68 -30 6 C-20.32748065 -0.25728412 -11.33087515 -1.81883896 0 0 Z " fill="#4FC061" transform="translate(133,192)"/>
<path d="M0 0 C9.49431342 -0.81134381 16.04673778 1.1017984 24.5 5.3125 C25.55703125 5.81201172 26.6140625 6.31152344 27.703125 6.82617188 C32.1006279 8.93284363 36.17135015 10.95483844 40 14 C39.67 14.99 39.34 15.98 39 17 C38.45730469 16.65066406 37.91460937 16.30132812 37.35546875 15.94140625 C36.64003906 15.48636719 35.92460937 15.03132813 35.1875 14.5625 C34.47980469 14.11003906 33.77210938 13.65757812 33.04296875 13.19140625 C30.91865448 11.85913661 30.91865448 11.85913661 28 11 C28 10.34 28 9.68 28 9 C27.27554688 8.80664062 26.55109375 8.61328125 25.8046875 8.4140625 C17.60377358 6.20528302 17.60377358 6.20528302 13.875 4.9375 C10.60381405 3.87080893 7.330069 3.20572743 3.953125 2.5625 C2 2 2 2 0 0 Z " fill="#52B261" transform="translate(181,384)"/>
<path d="M0 0 C0.309375 0.639375 0.61875 1.27875 0.9375 1.9375 C1.8345163 3.93610821 1.8345163 3.93610821 3 5 C3 11.27 3 17.54 3 24 C-19.77 24 -42.54 24 -66 24 C-66 23.67 -66 23.34 -66 23 C-43.56 23 -21.12 23 2 23 C1.29472629 13.25321394 1.29472629 13.25321394 -1 5 C-0.625 2.125 -0.625 2.125 0 0 Z " fill="#15481B" transform="translate(295,264)"/>
<path d="M0 0 C2.37682369 2.13714399 3.59931002 3.93778054 4.6875 6.9375 C4.93886719 7.60652344 5.19023438 8.27554687 5.44921875 8.96484375 C6 11 6 11 6 15 C6.58394531 15.22042969 7.16789062 15.44085938 7.76953125 15.66796875 C10.69932758 17.41763696 11.88796645 19.42778135 13.6875 22.3125 C14.59048828 23.72982422 14.59048828 23.72982422 15.51171875 25.17578125 C16.92972658 27.86664651 17.59101783 30.00625054 18 33 C9.86770122 25.23205152 1.66956248 15.43008159 0 4 C0 2.68 0 1.36 0 0 Z " fill="#4EAD5D" transform="translate(48,306)"/>
<path d="M0 0 C0.66 0.33 1.32 0.66 2 1 C1.32453125 1.83660156 0.6490625 2.67320312 -0.046875 3.53515625 C-6.65617377 12.04552339 -10.00570906 19.37370351 -12 30 C-12.66 30 -13.32 30 -14 30 C-14.08126087 27.91731407 -14.13930839 25.83371342 -14.1875 23.75 C-14.22230469 22.58984375 -14.25710937 21.4296875 -14.29296875 20.234375 C-13.97927287 16.77117245 -13.46132762 15.40769094 -11 13 C-10.34 13 -9.68 13 -9 13 C-8.773125 12.13375 -8.54625 11.2675 -8.3125 10.375 C-6.639267 6.07240086 -4.27675521 2.13837761 0 0 Z " fill="#57B867" transform="translate(128,254)"/>
<path d="M0 0 C4.72184867 -0.13083208 8.79317238 0.25450462 13.375 1.375 C21.52007296 3.22695086 29.69897339 4.14577813 38 5 C34.95026315 7.0331579 34.31043132 7.2548508 30.875 7.265625 C30.08609375 7.26820313 29.2971875 7.27078125 28.484375 7.2734375 C27.66453125 7.26570312 26.8446875 7.25796875 26 7.25 C25.18015625 7.25773438 24.3603125 7.26546875 23.515625 7.2734375 C22.72671875 7.27085937 21.9378125 7.26828125 21.125 7.265625 C20.40570313 7.26336914 19.68640625 7.26111328 18.9453125 7.25878906 C17 7 17 7 14 5 C11.61980421 4.24077573 9.22128138 3.53796735 6.8125 2.875 C6.15830078 2.69324219 5.50410156 2.51148438 4.83007812 2.32421875 C3.22137657 1.87800956 1.61085869 1.43835785 0 1 C0 0.67 0 0.34 0 0 Z " fill="#54B663" transform="translate(115,513)"/>
<path d="M0 0 C-2.29425274 2.29425274 -3.13750554 2.38757413 -6.25390625 2.89453125 C-7.10484863 3.0430957 -7.95579102 3.19166016 -8.83251953 3.34472656 C-9.73341309 3.4990918 -10.63430664 3.65345703 -11.5625 3.8125 C-18.16950859 5.01931306 -23.88815505 6.21809689 -29.5390625 10.046875 C-31 11 -31 11 -33 11 C-32.08644336 7.82355305 -31.62769141 6.34977417 -28.6796875 4.70703125 C-27.29136719 4.26423828 -27.29136719 4.26423828 -25.875 3.8125 C-24.88113281 3.49410156 -23.88726562 3.17570313 -22.86328125 2.84765625 C-21.91839844 2.56792969 -20.97351563 2.28820312 -20 2 C-19.31292969 1.77183594 -18.62585938 1.54367188 -17.91796875 1.30859375 C-12.03361025 -0.46290786 -6.09220642 -0.18276619 0 0 Z " fill="#082D0A" transform="translate(134,188)"/>
<path d="M0 0 C8.34834709 2.60885847 13.75473251 8.03124315 17.875 15.56640625 C21.07563803 22.49000865 19.78563309 29.63922227 19 37 C18.67 37 18.34 37 18 37 C17.96559814 36.42032471 17.93119629 35.84064941 17.89575195 35.2434082 C17.72518342 32.59761261 17.51920071 29.95570819 17.3125 27.3125 C17.25900391 26.40048828 17.20550781 25.48847656 17.15039062 24.54882812 C16.76097815 19.89280937 16.54995433 17.64749974 13.4453125 13.9921875 C12.63835937 13.33476562 11.83140625 12.67734375 11 12 C10.855625 11.278125 10.71125 10.55625 10.5625 9.8125 C10.376875 9.214375 10.19125 8.61625 10 8 C8.6078125 7.5359375 8.6078125 7.5359375 7.1875 7.0625 C3.38807168 5.79602389 2.18764873 4.2814731 0 1 C0 0.67 0 0.34 0 0 Z " fill="#0B3A0F" transform="translate(210,395)"/>
<path d="M0 0 C0.66 0 1.32 0 2 0 C1.34 11.55 0.68 23.1 0 35 C-0.99 35.495 -0.99 35.495 -2 36 C-2.04969106 31.83741853 -2.08585642 27.67499739 -2.10986328 23.51220703 C-2.11987856 22.09811391 -2.13349474 20.68404127 -2.15087891 19.27001953 C-2.17532559 17.22944054 -2.18652784 15.18913697 -2.1953125 13.1484375 C-2.20578613 11.92302246 -2.21625977 10.69760742 -2.22705078 9.43505859 C-1.99746626 5.96166703 -1.2511457 3.23393024 0 0 Z " fill="#062809" transform="translate(45,261)"/>
<path d="M0 0 C2.38913849 2.38913849 2.32611586 3.18642649 2.59765625 6.46484375 C2.67693359 7.34720703 2.75621094 8.22957031 2.83789062 9.13867188 C2.91201172 10.06228516 2.98613281 10.98589844 3.0625 11.9375 C3.21698295 13.75937743 3.3744111 15.58100816 3.53515625 17.40234375 C3.600979 18.21179443 3.66680176 19.02124512 3.73461914 19.85522461 C3.95081818 22.18135262 3.95081818 22.18135262 5 25 C5.03954234 27.33299825 5.04401732 29.66708189 5 32 C4.01 32 3.02 32 2 32 C1.80083984 30.28490234 1.80083984 30.28490234 1.59765625 28.53515625 C1.4194969 27.0442438 1.24109918 25.55335982 1.0625 24.0625 C0.93198242 22.93038086 0.93198242 22.93038086 0.79882812 21.77539062 C0.65675901 18.07812542 0.65675901 18.07812542 -1 15 C-0.90913549 12.46458702 -0.7629055 9.96445216 -0.5625 7.4375 C-0.51029297 6.72658203 -0.45808594 6.01566406 -0.40429688 5.28320312 C-0.27425893 3.52178001 -0.13773103 1.76083827 0 0 Z " fill="#114015" transform="translate(35,411)"/>
<path d="M0 0 C1.86785156 0.01353516 1.86785156 0.01353516 3.7734375 0.02734375 C5.18496094 0.04474609 5.18496094 0.04474609 6.625 0.0625 C5.985625 0.371875 5.34625 0.68125 4.6875 1 C2.68889179 1.8970163 2.68889179 1.8970163 1.625 3.0625 C-6.74263983 5.33708379 -14.713171 6.53978446 -23.375 6.0625 C-15.8626598 1.0542732 -8.86715055 -0.08365236 0 0 Z " fill="#54B763" transform="translate(148.375,185.9375)"/>
<path d="M0 0 C2.39614126 -0.05425226 4.79103853 -0.09379027 7.1875 -0.125 C8.19780273 -0.15013672 8.19780273 -0.15013672 9.22851562 -0.17578125 C13.28807807 -0.21538674 16.34998815 0.19979998 20 2 C20 2.66 20 3.32 20 4 C23.63 4 27.26 4 31 4 C31 4.66 31 5.32 31 6 C31.66 6.33 32.32 6.66 33 7 C6.03501946 4.0233463 6.03501946 4.0233463 0 0 Z " fill="#09350C" transform="translate(166,317)"/>
<path d="M0 0 C0.66 0.66 1.32 1.32 2 2 C1.875 3.9375 1.875 3.9375 1 6 C0.36320312 6.433125 -0.27359375 6.86625 -0.9296875 7.3125 C-4.05767737 9.86210684 -4.64413933 12.98062003 -5.875 16.72265625 C-7.19996145 19.40478307 -8.24311476 19.98339857 -11 21 C-10.68950274 19.56206608 -10.3765224 18.1246682 -10.0625 16.6875 C-9.88847656 15.88699219 -9.71445312 15.08648437 -9.53515625 14.26171875 C-8.63967302 10.47715823 -7.68992858 8.68992858 -5 6 C-4.484375 5.13375 -3.96875 4.2675 -3.4375 3.375 C-2 1 -2 1 0 0 Z " fill="#5ABC68" transform="translate(64,228)"/>
<path d="M0 0 C7.83991749 0.47039505 14.72071135 3.22937188 22 6 C21.67 6.66 21.34 7.32 21 8 C14.07 7.505 14.07 7.505 7 7 C6.67 5.68 6.34 4.36 6 3 C5.195625 2.87625 4.39125 2.7525 3.5625 2.625 C2.716875 2.41875 1.87125 2.2125 1 2 C0.67 1.34 0.34 0.68 0 0 Z " fill="#061D06" transform="translate(187,387)"/>
<path d="M0 0 C4.13623671 3.94822595 5.34237424 7.04141414 6.125 12.6875 C6.29257812 13.86699219 6.46015625 15.04648437 6.6328125 16.26171875 C6.75398438 17.16535156 6.87515625 18.06898438 7 19 C7.66 19 8.32 19 9 19 C9 20.98 9 22.96 9 25 C5.35257209 22.71372855 4.145964 21.57892895 3.07421875 17.328125 C2.92270445 15.97108387 2.79429313 14.61129073 2.6875 13.25 C2.61466797 12.55261719 2.54183594 11.85523438 2.46679688 11.13671875 C2.29108191 9.42642647 2.14277968 7.71335618 2 6 C1.01 5.67 0.02 5.34 -1 5 C-0.67 3.35 -0.34 1.7 0 0 Z " fill="#54AF63" transform="translate(286,243)"/>
<path d="M0 0 C0.66 0.33 1.32 0.66 2 1 C1.10543113 7.61510137 0.23750138 12.64080707 -4 18 C-4.75951165 19.11860049 -5.50972053 20.24357996 -6.25 21.375 C-6.8275 22.24125 -7.405 23.1075 -8 24 C-8.66 23.67 -9.32 23.34 -10 23 C-9.68546875 22.50113281 -9.3709375 22.00226563 -9.046875 21.48828125 C-5.62770756 15.75190697 -3.60943122 10.04323186 -1.796875 3.625 C-1 1 -1 1 0 0 Z " fill="#052106" transform="translate(298,449)"/>
<path d="M0 0 C3.74142128 3.4380628 5.74873617 6.49747233 8 11 C9.57338135 12.85873011 11.19922746 14.63491416 12.890625 16.38671875 C13.25671875 16.91910156 13.6228125 17.45148438 14 18 C13.67 18.99 13.34 19.98 13 21 C12.34 19.68 11.68 18.36 11 17 C10.01 17 9.02 17 8 17 C8 16.34 8 15.68 8 15 C7.01 14.67 6.02 14.34 5 14 C3.61328125 12.109375 3.61328125 12.109375 2.3125 9.75 C1.87550781 8.98171875 1.43851563 8.2134375 0.98828125 7.421875 C-0.09669092 4.76304991 -0.18655326 2.84367675 0 0 Z " fill="#09310B" transform="translate(48,464)"/>
<path d="M0 0 C6.52522047 3.0209354 12.19623036 6.76610248 18 11 C15.41682979 12.2915851 14.59847868 11.8350736 11.875 11 C6.55390589 9.16305827 2.94295256 5.92146508 -1 2 C-0.67 1.34 -0.34 0.68 0 0 Z " fill="#082D0A" transform="translate(72,493)"/>
<path d="M0 0 C0.61035156 1.77709961 0.61035156 1.77709961 1 4 C-0.32033104 6.66695186 -1.66465712 9.0640189 -3.25 11.5625 C-3.65863281 12.23474609 -4.06726563 12.90699219 -4.48828125 13.59960938 C-6.41624347 16.72092441 -8.20454063 19.57447371 -11 22 C-11.66 22 -12.32 22 -13 22 C-12.59566007 19.6548284 -12.32168423 18.31453569 -10.59375 16.625 C-8.81292395 14.80925579 -7.90115102 13.10242111 -6.8125 10.8125 C-6.46832031 10.09707031 -6.12414062 9.38164062 -5.76953125 8.64453125 C-5.51558594 8.10183594 -5.26164062 7.55914062 -5 7 C-4.34 7 -3.68 7 -3 7 C-2.87625 6.030625 -2.7525 5.06125 -2.625 4.0625 C-2.41875 3.051875 -2.2125 2.04125 -2 1 C-1.34 0.67 -0.68 0.34 0 0 Z " fill="#58AE65" transform="translate(293,459)"/>
<path d="M0 0 C0.33 0 0.66 0 1 0 C1.05906119 3.60409539 1.09394639 7.20806309 1.125 10.8125 C1.14175781 11.81732422 1.15851563 12.82214844 1.17578125 13.85742188 C1.28840962 31.37113353 1.28840962 31.37113353 -2.57373047 35.80786133 C-3.04439941 36.20126709 -3.51506836 36.59467285 -4 37 C-4.125 29.375 -4.125 29.375 -3 26 C-2.34 26 -1.68 26 -1 26 C-0.67 17.42 -0.34 8.84 0 0 Z " fill="#50B15F" transform="translate(300,415)"/>
<path d="M0 0 C2.58620832 0.42401788 5.16810219 0.8635714 7.75 1.3125 C8.84441406 1.48942383 8.84441406 1.48942383 9.9609375 1.66992188 C14.03109895 2.3914505 16.88808934 3.07644183 20 6 C12.78528371 6.35482211 6.87581298 5.1591338 0 3 C0 2.01 0 1.02 0 0 Z " fill="#08350B" transform="translate(165,381)"/>
<path d="M0 0 C3.625 1.5625 3.625 1.5625 6 3 C6 3.33 6 3.66 6 4 C-0.96327638 4.33693273 -6.43345544 3.3030887 -13 1 C-8.63647476 -1.90901683 -5.00655993 -0.97802566 0 0 Z " fill="#5BBF69" transform="translate(237,334)"/>
<path d="M0 0 C2.475 0.495 2.475 0.495 5 1 C5.33 1.99 5.66 2.98 6 4 C6.66 4.33 7.32 4.66 8 5 C8 5.66 8 6.32 8 7 C8.66 7 9.32 7 10 7 C10 7.66 10 8.32 10 9 C10.66 9 11.32 9 12 9 C12.33 11.31 12.66 13.62 13 16 C9.14370087 13.15673917 6.45445477 10.21541737 3.6875 6.3125 C2.64142578 4.85263672 2.64142578 4.85263672 1.57421875 3.36328125 C0 1 0 1 0 0 Z " fill="#15491C" transform="translate(272,222)"/>
<path d="M0 0 C6.48707154 1.6813917 12.7677635 3.53062327 19 6 C19 6.66 19 7.32 19 8 C19.99 8.33 20.98 8.66 22 9 C13.83883021 8.96459362 7.73179854 6.60596742 1 2 C0.67 1.34 0.34 0.68 0 0 Z " fill="#51AE5F" transform="translate(88,502)"/>
<path d="M0 0 C2.39900276 0.70617827 4.7948056 1.42111278 7.1875 2.1484375 C8.97467175 2.68955339 10.76602172 3.21719518 12.5625 3.7265625 C18.54493748 5.51735793 18.54493748 5.51735793 21.0625 8.1875 C21.5265625 9.0846875 21.5265625 9.0846875 22 10 C17.95566974 9.31208588 14.27737071 8.12467061 10.4375 6.6875 C9.32246094 6.27886719 8.20742187 5.87023437 7.05859375 5.44921875 C3.99026991 3.9953897 2.21441441 2.53926738 0 0 Z " fill="#0A360C" transform="translate(130,304)"/>
<path d="M0 0 C3.44829668 2.64306257 3.67170726 5.38853226 4.25 9.5625 C4.50523438 11.29693359 4.50523438 11.29693359 4.765625 13.06640625 C5 16 5 16 4 18 C3.34 18 2.68 18 2 18 C-0.61281488 12.12116651 -0.18328202 6.29268272 0 0 Z " fill="#092A0B" transform="translate(45,300)"/>
<path d="M0 0 C-0.33 0.66 -0.66 1.32 -1 2 C-9.75656312 3.65159376 -19.1208477 3.10916991 -28 3 C-28 2.67 -28 2.34 -28 2 C-18.5005349 0.38306977 -9.63225483 -0.26349633 0 0 Z " fill="#0E3410" transform="translate(177,246)"/>
<path d="M0 0 C0.66 0 1.32 0 2 0 C1.54917531 1.46067199 1.08906463 2.91848032 0.625 4.375 C0.36976562 5.18710938 0.11453125 5.99921875 -0.1484375 6.8359375 C-1 9 -1 9 -3 11 C-3.60311615 12.68761858 -4.13850237 14.40014476 -4.625 16.125 C-4.88539062 17.03507812 -5.14578125 17.94515625 -5.4140625 18.8828125 C-5.60742188 19.58148438 -5.80078125 20.28015625 -6 21 C-6.33 21 -6.66 21 -7 21 C-7.9928613 12.48976031 -5.09005007 6.80592668 0 0 Z " fill="#0A2A0D" transform="translate(54,238)"/>
<path d="M0 0 C1.89551022 -0.05441656 3.7914792 -0.09298035 5.6875 -0.125 C6.74324219 -0.14820313 7.79898438 -0.17140625 8.88671875 -0.1953125 C12.10646048 0.00667883 14.18604446 0.43285839 17 2 C18.3125 4.125 18.3125 4.125 19 6 C16.58034748 5.57565795 14.16515752 5.1361568 11.75 4.6875 C11.06808594 4.56955078 10.38617188 4.45160156 9.68359375 4.33007812 C5.74446501 3.58432074 2.97338905 2.73582446 0 0 Z " fill="#4BA658" transform="translate(181,384)"/>
<path d="M0 0 C3.23977621 2.61602619 4.05904973 5.52247319 5.25 9.4375 C5.60578125 10.57058594 5.9615625 11.70367187 6.328125 12.87109375 C6.96157872 15.82107297 7.05976165 17.23510902 6 20 C5.34 17.69 4.68 15.38 4 13 C3.34 13 2.68 13 2 13 C0.24252386 8.49646738 -0.19294408 4.82360189 0 0 Z " fill="#072208" transform="translate(291,249)"/>
<path d="M0 0 C2.97 0.99 5.94 1.98 9 3 C9 3.99 9 4.98 9 6 C10.32 6 11.64 6 13 6 C13 7.32 13 8.64 13 10 C13.66 10 14.32 10 15 10 C14.67 10.99 14.34 11.98 14 13 C11.66069977 11.21568681 9.3286163 9.42315931 7 7.625 C6.33226562 7.11710938 5.66453125 6.60921875 4.9765625 6.0859375 C4.02910156 5.35117188 4.02910156 5.35117188 3.0625 4.6015625 C2.47597656 4.15119629 1.88945312 3.70083008 1.28515625 3.23681641 C0.64900391 2.62459229 0.64900391 2.62459229 0 2 C0 1.34 0 0.68 0 0 Z " fill="#0A340E" transform="translate(254,206)"/>
<path d="M0 0 C1.65 0.33 3.3 0.66 5 1 C5 1.66 5 2.32 5 3 C6.2375 2.9175 7.475 2.835 8.75 2.75 C12.10506698 2.7262052 12.75447904 2.80358323 15.5 5 C15.995 5.66 16.49 6.32 17 7 C10.95198929 6.45018084 5.69398894 5.09570426 0 3 C0 2.01 0 1.02 0 0 Z " fill="#072408" transform="translate(131,451)"/>
<path d="M0 0 C0.33 0 0.66 0 1 0 C0.65697965 5.98511371 0.17692157 10.75117306 -3 16 C-3.66 16 -4.32 16 -5 16 C-3.94230769 3.94230769 -3.94230769 3.94230769 0 0 Z " fill="#50A55C" transform="translate(52,247)"/>
<path d="M0 0 C0.33 0.99 0.66 1.98 1 3 C-2.95523655 5.75668002 -6.22423661 6.5317879 -11 7 C-8.96914893 1.64593808 -5.57872788 0 0 0 Z " fill="#4CAF5B" transform="translate(252,502)"/>
<path d="M0 0 C-6.7891602 3.00289778 -11.55010012 4.124165 -19 4 C-18.67 3.01 -18.34 2.02 -18 1 C-15.56348622 0.63737003 -13.12623023 0.28461036 -10.6875 -0.0625 C-9.99720703 -0.16626953 -9.30691406 -0.27003906 -8.59570312 -0.37695312 C-5.30415164 -0.83808836 -3.19783876 -1.06594625 0 0 Z " fill="#0B330D" transform="translate(202,457)"/>
<path d="M0 0 C1.79158489 -0.02696365 3.58328473 -0.04637917 5.375 -0.0625 C6.37273437 -0.07410156 7.37046875 -0.08570313 8.3984375 -0.09765625 C11 0 11 0 13 1 C12.67 2.32 12.34 3.64 12 5 C9.625 5.125 9.625 5.125 7 5 C6.34 4.34 5.68 3.68 5 3 C2.42938689 2.35232207 2.42938689 2.35232207 0 2 C0 1.34 0 0.68 0 0 Z " fill="#021A03" transform="translate(152,380)"/>
<path d="M0 0 C3.82834653 3.42536269 5.86783912 5.95673791 7 11 C7.125 14.375 7.125 14.375 7 17 C4.66911211 14.12145363 3.16775203 11.38015172 1.8125 7.9375 C1.46832031 7.08027344 1.12414062 6.22304688 0.76953125 5.33984375 C0 3 0 3 0 0 Z " fill="#032604" transform="translate(220,266)"/>
<path d="M0 0 C7.23820173 0.34467627 11.91590189 2.10214991 18 6 C18 6.99 18 7.98 18 9 C9.09 5.04 9.09 5.04 0 1 C0 0.67 0 0.34 0 0 Z " fill="#3FC355" transform="translate(237,334)"/>
<path d="M0 0 C4.32511328 3.91319773 5.87983952 8.75700439 6.1875 14.5 C6.125625 15.325 6.06375 16.15 6 17 C1.19292241 11.87245057 0 6.87081055 0 0 Z " fill="#58B567" transform="translate(48,306)"/>
<path d="M0 0 C0.763125 0.20625 1.52625 0.4125 2.3125 0.625 C-5.4375 6.90878378 -5.4375 6.90878378 -10.6875 6.625 C-3.73006466 -0.52047414 -3.73006466 -0.52047414 0 0 Z " fill="#062707" transform="translate(262.6875,499.375)"/>
<path d="M0 0 C4.75481646 0.57634139 7.97048212 2.55068521 12 5 C11.67 5.99 11.34 6.98 11 8 C11.66 8 12.32 8 13 8 C12.67 8.99 12.34 9.98 12 11 C11.01 10.34 10.02 9.68 9 9 C9 8.34 9 7.68 9 7 C8.443125 6.773125 7.88625 6.54625 7.3125 6.3125 C4.36753316 4.64103234 2.31843456 2.44723648 0 0 Z " fill="#0A340C" transform="translate(263,347)"/>
<path d="M0 0 C-2.35283375 0.65104151 -4.70708449 1.29592122 -7.0625 1.9375 C-7.71927734 2.11990234 -8.37605469 2.30230469 -9.05273438 2.49023438 C-13.3587782 3.65689649 -17.57159654 4.45292805 -22 5 C-21.67 4.01 -21.34 3.02 -21 2 C-18.25162151 1.46892686 -15.50187625 0.94984119 -12.75 0.4375 C-11.97269531 0.28603516 -11.19539062 0.13457031 -10.39453125 -0.02148438 C-9.64042969 -0.16005859 -8.88632813 -0.29863281 -8.109375 -0.44140625 C-7.07248535 -0.63778687 -7.07248535 -0.63778687 -6.01464844 -0.83813477 C-3.78712058 -1.01710362 -2.12493038 -0.65206197 0 0 Z " fill="#55B664" transform="translate(227,514)"/>
<path d="M0 0 C2.475 0.495 2.475 0.495 5 1 C5 1.99 5 2.98 5 4 C5.78375 4.28875 6.5675 4.5775 7.375 4.875 C10 6 10 6 12 8 C11.67 8.99 11.34 9.98 11 11 C6.81402577 8.37159758 3.32705097 5.71846873 0 2 C0 1.34 0 0.68 0 0 Z " fill="#4FBC60" transform="translate(74,490)"/>
<path d="M0 0 C1.86785156 0.01353516 1.86785156 0.01353516 3.7734375 0.02734375 C5.18496094 0.04474609 5.18496094 0.04474609 6.625 0.0625 C5.985625 0.371875 5.34625 0.68125 4.6875 1 C2.68889179 1.8970163 2.68889179 1.8970163 1.625 3.0625 C-3.44954515 3.4257306 -8.39157457 3.08474111 -13.375 2.0625 C-13.375 1.7325 -13.375 1.4025 -13.375 1.0625 C-8.85684719 0.17972245 -4.59987306 -0.04339503 0 0 Z " fill="#4BA156" transform="translate(148.375,185.9375)"/>
<path d="M0 0 C3.63 0 7.26 0 11 0 C10.67 1.32 10.34 2.64 10 4 C5.78121808 4.19622241 2.82989106 3.80230168 -1 2 C-0.67 1.34 -0.34 0.68 0 0 Z " fill="#4CC060" transform="translate(145,460)"/>
<path d="M0 0 C0 0.99 0 1.98 0 3 C-6.27692308 7.06153846 -6.27692308 7.06153846 -9.9375 6.75 C-10.618125 6.5025 -11.29875 6.255 -12 6 C-8.51279384 1.6409923 -5.27239085 1.05447817 0 0 Z " fill="#062609" transform="translate(250,506)"/>
<path d="M0 0 C4.51617599 -0.07654536 8.59085217 -0.10228696 13 1 C13 1.99 13 2.98 13 4 C7.73946963 4.31563182 4.55426184 3.66590937 0 1 C0 0.67 0 0.34 0 0 Z " fill="#58BF66" transform="translate(188,323)"/>
<path d="M0 0 C0.86625 0.07605469 1.7325 0.15210938 2.625 0.23046875 C5.29422076 0.88460344 6.28213877 1.7160312 8 3.8125 C4.19068824 5.08227059 2.18381007 4.33324507 -1.6875 3.375 C-3.45673828 2.94380859 -3.45673828 2.94380859 -5.26171875 2.50390625 C-6.16535156 2.27574219 -7.06898438 2.04757812 -8 1.8125 C-4.6344583 -0.43119447 -3.86078219 -0.3964196 0 0 Z " fill="#124417" transform="translate(224,328.1875)"/>
<path d="M0 0 C2.31 0 4.62 0 7 0 C7 0.66 7 1.32 7 2 C5.35 2.66 3.7 3.32 2 4 C1.67 9.28 1.34 14.56 1 20 C0.67 20 0.34 20 0 20 C0 13.4 0 6.8 0 0 Z " fill="#010E00" transform="translate(421,382)"/>
<path d="M0 0 C3 1.625 3 1.625 6 4 C6.375 7.25 6.375 7.25 6 10 C3.5 8.75 3.5 8.75 1 7 C1 5.68 1 4.36 1 3 C0.34 3 -0.32 3 -1 3 C-0.67 2.01 -0.34 1.02 0 0 Z " fill="#041E04" transform="translate(275,352)"/>
<path d="M0 0 C1.58560393 0.25720674 3.16845924 0.53138799 4.75 0.8125 C5.63171875 0.96332031 6.5134375 1.11414063 7.421875 1.26953125 C10.22215024 2.06294257 11.87345147 3.02747718 14 5 C14 5.66 14 6.32 14 7 C12.41531323 6.54636829 10.83230076 6.08688548 9.25 5.625 C8.36828125 5.36976563 7.4865625 5.11453125 6.578125 4.8515625 C4.23919428 4.0790066 2.16557438 3.16374324 0 2 C0 1.34 0 0.68 0 0 Z " fill="#0E360F" transform="translate(234,195)"/>
<path d="M0 0 C4.28324091 2.51407619 6.64531705 4.12314139 8 9 C4.93795671 8.66896829 3.39949096 8.39949096 1.1875 6.1875 C0 4 0 4 0 0 Z " fill="#57BD68" transform="translate(54,470)"/>
<path d="M0 0 C1.32 0.33 2.64 0.66 4 1 C5.265625 3.50390625 5.265625 3.50390625 6.25 6.5625 C6.58515625 7.57441406 6.9203125 8.58632813 7.265625 9.62890625 C7.62914062 10.80259766 7.62914062 10.80259766 8 12 C7.01 12.495 7.01 12.495 6 13 C4.02 8.71 2.04 4.42 0 0 Z " fill="#042C06" transform="translate(288,371)"/>
<path d="M0 0 C2 3 2 3 2 6 C2.66 6 3.32 6 4 6 C4 7.98 4 9.96 4 12 C1.5625 10.4375 1.5625 10.4375 -1 8 C-1.8125 4.25 -1.8125 4.25 -2 1 C-1.34 0.67 -0.68 0.34 0 0 Z " fill="#4CA45A" transform="translate(291,256)"/>
<path d="M0 0 C3.25597758 0.24118352 4.7276304 1.52224212 6.8125 3.875 C7.534375 4.90625 8.25625 5.9375 9 7 C8.67 7.99 8.34 8.98 8 10 C1.42857143 5 1.42857143 5 0 0 Z " fill="#063109" transform="translate(112,434)"/>
<path d="M0 0 C0.66 0 1.32 0 2 0 C1.60246179 1.46366342 1.18118616 2.9208935 0.75 4.375 C0.51796875 5.18710938 0.2859375 5.99921875 0.046875 6.8359375 C-1.2214892 9.45785454 -2.32423308 9.99382318 -5 11 C-4.67 9.02 -4.34 7.04 -4 5 C-3.34 5 -2.68 5 -2 5 C-1.34 3.35 -0.68 1.7 0 0 Z " fill="#54C566" transform="translate(58,238)"/>
<path d="M0 0 C4.55737263 0.43820891 7.57653445 0.85041169 11 4 C8.03 4 5.06 4 2 4 C1.34 2.68 0.68 1.36 0 0 Z " fill="#60BA69" transform="translate(237,199)"/>
<path d="M0 0 C0.99 0.33 1.98 0.66 3 1 C2.34 2.32 1.68 3.64 1 5 C1.66 5.33 2.32 5.66 3 6 C0.69 6.66 -1.62 7.32 -4 8 C-3.50168276 4.31245243 -2.89932357 2.39509338 0 0 Z " fill="#48BE59" transform="translate(279,476)"/>
<path d="M0 0 C2.375 0.25 2.375 0.25 5 1 C5.70151152 2.3153341 6.36525925 3.65117592 7 5 C9.53188648 6.75322937 9.53188648 6.75322937 12 8 C11.67 8.66 11.34 9.32 11 10 C5.62704618 7.31352309 2.96852125 5.22459741 0 0 Z " fill="#4FAE5E" transform="translate(78,349)"/>
<path d="M0 0 C0.99 0.33 1.98 0.66 3 1 C2 4 2 4 -0.25 5.125 C-2.8273678 5.94507157 -5.33619068 6.54334697 -8 7 C-5.52327657 4.3929227 -2.94900512 2.06430358 0 0 Z " fill="#4FB05E" transform="translate(100,198)"/>
<path d="M0 0 C0.33 0 0.66 0 1 0 C1.49279682 7.2687531 1.49279682 7.2687531 -0.9375 10.875 C-1.9584375 11.926875 -1.9584375 11.926875 -3 13 C-3.33 13.66 -3.66 14.32 -4 15 C-4.66 14.67 -5.32 14.34 -6 14 C-5.65066406 13.40832031 -5.30132812 12.81664062 -4.94140625 12.20703125 C-4.48636719 11.41683594 -4.03132813 10.62664062 -3.5625 9.8125 C-2.88380859 8.64654297 -2.88380859 8.64654297 -2.19140625 7.45703125 C-0.97608501 4.95068023 -0.42373425 2.74209635 0 0 Z " fill="#092F0C" transform="translate(294,458)"/>
<path d="M0 0 C3.25543229 0.34879632 4.01873107 1.02133261 6.25 3.5625 C6.8275 4.366875 7.405 5.17125 8 6 C2.25 5.25 2.25 5.25 0 3 C0 2.01 0 1.02 0 0 Z " fill="#052106" transform="translate(269,217)"/>
<path d="M0 0 C3.96 0.33 7.92 0.66 12 1 C8.91111478 3.05925681 8.29064073 3.2390374 4.8125 3.125 C2.9253125 3.063125 2.9253125 3.063125 1 3 C0.67 2.01 0.34 1.02 0 0 Z " fill="#4DCD60" transform="translate(207,191)"/>
<path d="M0 0 C1 3 1 3 0.14453125 4.7890625 C-0.51482422 5.69785156 -0.51482422 5.69785156 -1.1875 6.625 C-1.61417969 7.23601562 -2.04085938 7.84703125 -2.48046875 8.4765625 C-4.26692012 10.26760629 -5.53471865 10.60935585 -8 11 C-8 10.34 -8 9.68 -8 9 C-7.01 9 -6.02 9 -5 9 C-4.5978125 8.1646875 -4.5978125 8.1646875 -4.1875 7.3125 C-2.89877353 4.80287477 -1.47073522 2.40665764 0 0 Z " fill="#0B330E" transform="translate(287,473)"/>
<path d="M0 0 C2.475 0.495 2.475 0.495 5 1 C5 2.32 5 3.64 5 5 C5.66 5.33 6.32 5.66 7 6 C7 6.66 7 7.32 7 8 C3.70851757 6.86500606 3.0040131 6.00716624 1.25 2.875 C0.8375 1.92625 0.425 0.9775 0 0 Z " fill="#08300B" transform="translate(281,362)"/>
<path d="M0 0 C0.99 0 1.98 0 3 0 C2.34 1.98 1.68 3.96 1 6 C0.01 6 -0.98 6 -2 6 C-1.125 1.125 -1.125 1.125 0 0 Z " fill="#072E09" transform="translate(58,230)"/>
<path d="M0 0 C1.98 0 3.96 0 6 0 C6.33 0.99 6.66 1.98 7 3 C4.36 3 1.72 3 -1 3 C-0.67 2.01 -0.34 1.02 0 0 Z " fill="#011A01" transform="translate(206,185)"/>
<path d="M0 0 C1.258125 0.12375 2.51625 0.2475 3.8125 0.375 C4.87404297 0.47941406 4.87404297 0.47941406 5.95703125 0.5859375 C8 1 8 1 11 3 C9.54257537 3.08096803 8.08387193 3.13917774 6.625 3.1875 C5.81289062 3.22230469 5.00078125 3.25710938 4.1640625 3.29296875 C3.44992188 3.19628906 2.73578125 3.09960938 2 3 C1.34 2.01 0.68 1.02 0 0 Z " fill="#062E08" transform="translate(187,387)"/>
<path d="M0 0 C2.9375 0.75 2.9375 0.75 6 2 C6.875 4.125 6.875 4.125 7 6 C3.62496331 4.8141763 1.35277269 3.72426311 -1 1 C-0.67 0.67 -0.34 0.34 0 0 Z " fill="#124316" transform="translate(256,341)"/>
<path d="M0 0 C0.99 0.495 0.99 0.495 2 1 C2 1.66 2 2.32 2 3 C2.66 3 3.32 3 4 3 C4 4.98 4 6.96 4 9 C3.01 8.34 2.02 7.68 1 7 C0.3125 3.375 0.3125 3.375 0 0 Z " fill="#021502" transform="translate(295,380)"/>
<path d="M0 0 C1.32 0.66 2.64 1.32 4 2 C1.6875 4.0625 1.6875 4.0625 -1 6 C-1.99 5.67 -2.98 5.34 -4 5 C-3.67 4.34 -3.34 3.68 -3 3 C-2.34 3 -1.68 3 -1 3 C-0.67 2.01 -0.34 1.02 0 0 Z " fill="#0A350B" transform="translate(79,209)"/>
<path d="M0 0 C-1.875 3.875 -1.875 3.875 -3 5 C-4.66617115 5.04063832 -6.33388095 5.042721 -8 5 C-3.22727273 0 -3.22727273 0 0 0 Z " fill="#51B360" transform="translate(92,205)"/>
<path d="M0 0 C2.31 0 4.62 0 7 0 C7 0.66 7 1.32 7 2 C4.36 2.33 1.72 2.66 -1 3 C-0.67 2.01 -0.34 1.02 0 0 Z " fill="#53B863" transform="translate(230,510)"/>
<path d="M0 0 C2.475 0.495 2.475 0.495 5 1 C5 1.99 5 2.98 5 4 C5.66 4.33 6.32 4.66 7 5 C3.47967572 5 2.5614657 4.29648649 0 2 C0 1.34 0 0.68 0 0 Z " fill="#53C965" transform="translate(74,490)"/>
<path d="M0 0 C1.65 0.33 3.3 0.66 5 1 C5.33 1.99 5.66 2.98 6 4 C3.03 3.505 3.03 3.505 0 3 C0 2.01 0 1.02 0 0 Z " fill="#0C310E" transform="translate(131,451)"/>
<path d="M0 0 C5.75 1.75 5.75 1.75 8 4 C6.68 4.33 5.36 4.66 4 5 C2.68 3.35 1.36 1.7 0 0 Z " fill="#0D3611" transform="translate(90,505)"/>
<path d="M0 0 C0.99 0 1.98 0 3 0 C3 0.66 3 1.32 3 2 C3.99 2.33 4.98 2.66 6 3 C5.67 3.99 5.34 4.98 5 6 C3.2925002 4.71937515 1.62626404 3.38232443 0 2 C0 1.34 0 0.68 0 0 Z " fill="#4EAB5D" transform="translate(71,343)"/>
</svg>
